<svg xmlns="http://www.w3.org/2000/svg" viewBox="0 0 92.57 92.57"><defs><style>.a{fill:#fff;}.b{fill:#221d58;}</style></defs><title>tc_head_01</title><circle class="a" cx="46.28" cy="46.28" r="46.28"/><path class="b" d="M46.87,3.85A43.27,43.27,0,1,0,90.15,47.12,43.32,43.32,0,0,0,46.87,3.85Zm0,3a40.24,40.24,0,0,1,31.74,65c-3.52-.25-8.36-.73-10.75-1-4.33-.57-7.47-1.7-8.25-7.37a37.41,37.41,0,0,1-.21-5.21c.21-.41,2-2.17,3.56-10.93.62-.1,1.49,0,2.47-1.86a22.59,22.59,0,0,0,2.68-8c.05-2.37-.21-4.74-1.55-5.1a7.57,7.57,0,0,0-1.55,0c.05-.57,0-5.93-.26-8.25S63.33,9.84,46.93,9.84,29.35,21.75,29.1,24.07s-.31,7.68-.26,8.25a7.58,7.58,0,0,0-1.55,0c-1.34.36-1.6,2.73-1.55,5.1a22.59,22.59,0,0,0,2.68,8,5.31,5.31,0,0,0,.59.9c.25,2.09.82,5.74.11,6.8a.73.73,0,0,0-.58.74.74.74,0,0,0,.77.7h.3l-.43.6a.73.73,0,0,0-.51.71.74.74,0,0,0,.76.71h.26l-.48.65a.73.73,0,0,0-.55.7.74.74,0,0,0,.72.73l0,0v0h.2l-.48.56a.73.73,0,0,0-.57.67h0a.73.73,0,0,0,.66.74l0,0,0,0h.25l-.49.57a.73.73,0,0,0-.61.67.74.74,0,0,0,.69.77h.23l-.46.55a.73.73,0,0,0-.58.65.74.74,0,0,0,.68.78l.84.06a27.36,27.36,0,0,1-1.72,5.72c-.66.15-1.35.26-2.09.36-2.87.38-7.57,1-10.78,1.15A40.24,40.24,0,0,1,46.87,6.85ZM30.45,63.32h-.21l.52-.59a.73.73,0,0,0-.2-1.42h-.18l.56-.62a.73.73,0,0,0-.25-1.41h-.16l.63-.71a.73.73,0,0,0,.25-.28h0a.72.72,0,0,0,.08-.31.74.74,0,0,0-.73-.73h-.22l.59-.76a.73.73,0,0,0,.37-.65.74.74,0,0,0-.76-.71h-.22l.53-.7a.72.72,0,0,0,.32-.63.74.74,0,0,0-.77-.7H30.4c.64-.66.11-4.46-.1-5.86.22,0,.43.07.61.1,1.55,8.76,3.35,10.52,3.56,10.93a37.42,37.42,0,0,1-.21,5.21c-.55,4-2.3,5.77-4.83,6.64A26.34,26.34,0,0,0,31,64.48a.71.71,0,0,0,.15-.37A.74.74,0,0,0,30.45,63.32ZM49.37,45h-5a.65.65,0,1,1,0-1.31h5a.65.65,0,0,1,0,1.31Zm.07,1s-1.06,1.23-1.22,1.4a1,1,0,0,1-1,.4h-1c-.38,0-.48-.21-.72-.44S44.31,46,44.31,46Zm.09-3.29H44.22a.65.65,0,0,1,0-1.31h5.31a.65.65,0,0,1,0,1.31Zm-6.1-2.46-.11-.59-.1-.17s-.88-.63-.95-3.22c-.49-1.61-2.17-4.58-2.57-5.54a9.46,9.46,0,0,1-.25-8,8.08,8.08,0,0,1,14.85,0,9.46,9.46,0,0,1-.25,8c-.39,1-2.08,3.93-2.57,5.54-.07,2.58-.95,3.22-.95,3.22l-.1.17a3.35,3.35,0,0,0-.11.59Z" transform="translate(-0.59 -1.09)"/></svg>