<?xml version="1.0" encoding="UTF-8"?>
<svg enable-background="new 0 0 400 100" version="1.1" viewBox="0 0 400 100" xml:space="preserve" xmlns="http://www.w3.org/2000/svg" xmlns:xlink="http://www.w3.org/1999/xlink">
<style type="text/css">
	.Arched_x0020_Green{fill:url(#l);stroke:#FFFFFF;stroke-width:0.25;stroke-miterlimit:1;}
	.st0{clip-path:url(#g);}
	.st1{clip-path:url(#d);fill:#FFFFFF;}
	.st2{clip-path:url(#b);}
	.st3{clip-path:url(#q);fill:#221D58;}
	.st4{clip-path:url(#o);}
	.st5{clip-path:url(#a);fill:#FFFFFF;}
	.st6{clip-path:url(#a);fill:#221D58;}
</style>
<linearGradient id="l" x1="-105.31" x2="-104.61" y1="744" y2="743.29" gradientUnits="userSpaceOnUse">
	<stop stop-color="#1EAB4B" offset="0"/>
	<stop stop-color="#19361A" offset=".9831"/>
</linearGradient>
		<defs>
			<rect id="h" x="106.9" y="28" width="292" height="47.5"/>
		</defs>
		<clipPath id="g">
			<use xlink:href="#h"/>
		</clipPath>
		<g class="st0">
			<defs>
				<rect id="f" x="105.3" y="26.6" width="296" height="49.8"/>
			</defs>
			<clipPath>
				<use xlink:href="#f"/>
			</clipPath>
		</g>
		<g class="st0">
			<defs>
				<rect id="e" x="105.3" y="26.6" width="296" height="49.8"/>
			</defs>
			<clipPath id="d">
				<use xlink:href="#e"/>
			</clipPath>
			<path class="st1" d="m358.5 42.9l4.2 16.2c0.9 3.6 1.8 6.9 2.4 10.2h0.2c0.7-3.2 1.8-6.7 2.8-10.1l5.2-16.3h4.9l5 16c1.2 3.8 2.1 7.2 2.8 10.4h0.2c0.5-3.2 1.4-6.6 2.4-10.4l4.6-16h5.7l-10.3 31.9h-5.3l-4.9-15.2c-1.1-3.6-2-6.7-2.8-10.5h-0.1c-0.8 3.8-1.8 7.1-2.9 10.6l-5.1 15.2h-5.3l-9.6-31.9h5.9z"/>
			<path class="st1" d="m327.9 59.9c0.1 7.9 5.1 11.1 11 11.1 4.2 0 6.7-0.7 8.8-1.7l1 4.2c-2 0.9-5.5 2-10.6 2-9.8 0-15.7-6.5-15.7-16.1s5.7-17.2 15-17.2c10.4 0 13.2 9.2 13.2 15 0 1.2-0.1 2.1-0.2 2.7h-22.5zm17-4.1c0.1-3.7-1.5-9.4-8.1-9.4-5.9 0-8.4 5.4-8.9 9.4h17z"/>
			<path class="st1" d="m305.3 52.9c0-3.8-0.1-7-0.3-10h5.1l0.2 6.3h0.3c1.5-4.3 4.9-7 8.8-7 0.7 0 1.1 0.1 1.6 0.2v5.5c-0.6-0.1-1.2-0.2-2-0.2-4.1 0-7 3.1-7.8 7.5-0.1 0.8-0.3 1.7-0.3 2.7v17h-5.7v-22z"/>
			<path class="st1" d="m300 73.4c-2.1 1.1-6.3 2.1-11.7 2.1-12.5 0-22-7.9-22-22.5 0-13.9 9.4-23.4 23.2-23.4 5.5 0 9 1.2 10.6 2l-1.4 4.7c-2.2-1.1-5.3-1.8-9-1.8-10.4 0-17.4 6.7-17.4 18.3 0 10.9 6.3 17.9 17.1 17.9 3.5 0 7.1-0.7 9.4-1.8l1.2 4.5z"/>
			<path class="st1" d="m232.5 57.6h0.1c0.8-1.1 1.9-2.5 2.8-3.6l9.4-11h7l-12.3 13 14.1 18.8h-7.1l-11-15.3-3 3.3v12h-5.7v-46.8h5.7v29.6z"/>
			<path class="st1" d="m191.7 51.6c0-3.3-0.1-6-0.3-8.6h5.1l0.3 5.3h0.1c1.6-3 5.3-6 10.6-6 4.4 0 11.3 2.6 11.3 13.6v19.1h-5.8v-18.6c0-5.1-1.9-9.4-7.4-9.4-3.8 0-6.8 2.7-7.8 5.9-0.3 0.7-0.4 1.7-0.4 2.7v19.2h-5.8v-23.2z"/>
			<path class="st1" d="m184.2 33.9c0.1 2-1.4 3.6-3.7 3.6-2 0-3.5-1.6-3.5-3.6s1.5-3.6 3.6-3.6c2.2 0 3.6 1.6 3.6 3.6m-6.4 9h5.8v31.9h-5.8v-31.9z"/>
			<path class="st1" d="m142.6 28h5.8v19.9h0.1c0.9-1.7 2.4-3.1 4.2-4.1 1.7-1 3.8-1.6 5.9-1.6 4.3 0 11.2 2.6 11.2 13.7v19h-5.8v-18.4c0-5.1-1.9-9.5-7.4-9.5-3.8 0-6.7 2.6-7.8 5.8-0.3 0.8-0.4 1.7-0.4 2.8v19.3h-5.8v-46.9z"/>
			<polygon class="st1" points="120.5 35.3 106.9 35.3 106.9 30.4 139.9 30.4 139.9 35.3 126.3 35.3 126.3 74.9 120.5 74.9"/>
		</g>
		<defs>
			<rect id="c" x="104.9" y="26" width="292" height="47.5"/>
		</defs>
		<clipPath id="b">
			<use xlink:href="#c"/>
		</clipPath>
		<g class="st2">
			<defs>
				<rect id="s" x="103.3" y="24.6" width="296" height="49.8"/>
			</defs>
			<clipPath>
				<use xlink:href="#s"/>
			</clipPath>
		</g>
		<g class="st2">
			<defs>
				<rect id="r" x="103.3" y="24.6" width="296" height="49.8"/>
			</defs>
			<clipPath id="q">
				<use xlink:href="#r"/>
			</clipPath>
			<path class="st3" d="m356.5 40.9l4.2 16.2c0.9 3.6 1.8 6.9 2.4 10.2h0.2c0.7-3.2 1.8-6.7 2.8-10.1l5.2-16.3h4.9l5 16c1.2 3.8 2.1 7.2 2.8 10.4h0.2c0.5-3.2 1.4-6.6 2.4-10.4l4.6-16h5.7l-10.3 31.9h-5.3l-4.9-15.2c-1.1-3.6-2-6.7-2.8-10.5h-0.1c-0.8 3.8-1.8 7.1-2.9 10.6l-5.1 15.2h-5.3l-9.6-31.9h5.9z"/>
			<path class="st3" d="m325.9 57.9c0.1 7.9 5.1 11.1 11 11.1 4.2 0 6.7-0.7 8.8-1.7l1 4.2c-2 0.9-5.5 2-10.6 2-9.8 0-15.7-6.5-15.7-16.1s5.7-17.2 15-17.2c10.4 0 13.2 9.2 13.2 15 0 1.2-0.1 2.1-0.2 2.7h-22.5zm17-4.1c0.1-3.7-1.5-9.4-8.1-9.4-5.9 0-8.4 5.4-8.9 9.4h17z"/>
			<path class="st3" d="m303.3 50.9c0-3.8-0.1-7-0.3-10h5.1l0.2 6.3h0.3c1.5-4.3 4.9-7 8.8-7 0.7 0 1.1 0.1 1.6 0.2v5.5c-0.6-0.1-1.2-0.2-2-0.2-4.1 0-7 3.1-7.8 7.5-0.1 0.8-0.3 1.7-0.3 2.7v17h-5.7v-22z"/>
			<path class="st3" d="m298 71.4c-2.1 1.1-6.3 2.1-11.7 2.1-12.5 0-22-7.9-22-22.5 0-13.9 9.4-23.4 23.2-23.4 5.5 0 9 1.2 10.6 2l-1.4 4.7c-2.2-1.1-5.3-1.8-9-1.8-10.4 0-17.4 6.7-17.4 18.3 0 10.9 6.3 17.9 17.1 17.9 3.5 0 7.1-0.7 9.4-1.8l1.2 4.5z"/>
			<path class="st3" d="m230.5 55.6h0.1c0.8-1.1 1.9-2.5 2.8-3.6l9.4-11h7l-12.3 13 14.1 18.8h-7.1l-11-15.3-3 3.3v12h-5.7v-46.8h5.7v29.6z"/>
			<path class="st3" d="m189.7 49.6c0-3.3-0.1-6-0.3-8.6h5.1l0.3 5.3h0.1c1.6-3 5.3-6 10.6-6 4.4 0 11.3 2.6 11.3 13.6v19.1h-5.8v-18.6c0-5.1-1.9-9.4-7.4-9.4-3.8 0-6.8 2.7-7.8 5.9-0.3 0.7-0.4 1.7-0.4 2.7v19.2h-5.8v-23.2z"/>
			<path class="st3" d="m182.2 31.9c0.1 2-1.4 3.6-3.7 3.6-2 0-3.5-1.6-3.5-3.6s1.5-3.6 3.6-3.6c2.2 0 3.6 1.6 3.6 3.6m-6.4 9h5.8v31.9h-5.8v-31.9z"/>
			<path class="st3" d="m140.6 26h5.8v19.9h0.1c0.9-1.7 2.4-3.1 4.2-4.1 1.7-1 3.8-1.6 5.9-1.6 4.3 0 11.2 2.6 11.2 13.7v19h-5.8v-18.4c0-5.1-1.9-9.5-7.4-9.5-3.8 0-6.7 2.6-7.8 5.8-0.3 0.8-0.4 1.7-0.4 2.8v19.3h-5.8v-46.9z"/>
			<polygon class="st3" points="118.5 33.3 104.9 33.3 104.9 28.4 137.9 28.4 137.9 33.3 124.3 33.3 124.3 72.9 118.5 72.9"/>
		</g>
		<defs>
			<rect id="p" x="2.2" y="1.5" width="97.2" height="97.2"/>
		</defs>
		<clipPath id="o">
			<use xlink:href="#p"/>
		</clipPath>
		<g class="st4">
			<defs>
				<rect id="n" x="1.6" y=".4" width="98.5" height="99.5"/>
			</defs>
			<clipPath>
				<use xlink:href="#n"/>
			</clipPath>
		</g>
		<g class="st4">
			<defs>
				<rect id="m" x="1.6" y=".4" width="98.5" height="99.5"/>
			</defs>
			<clipPath>
				<use xlink:href="#m"/>
			</clipPath>
		</g>
		<g class="st4">
			<defs>
				<rect id="k" x="1.6" y=".4" width="98.5" height="99.5"/>
			</defs>
			<clipPath>
				<use xlink:href="#k"/>
			</clipPath>
		</g>
		<g class="st4">
			<defs>
				<rect id="j" x="1.6" y=".4" width="98.5" height="99.5"/>
			</defs>
			<clipPath>
				<use xlink:href="#j"/>
			</clipPath>
		</g>
		<g class="st4">
			<defs>
				<rect id="i" x="1.6" y=".4" width="98.5" height="99.5"/>
			</defs>
			<clipPath id="a">
				<use xlink:href="#i"/>
			</clipPath>
			<path class="st5" d="m99.4 50.1c0 26.9-21.8 48.6-48.6 48.6-26.8 0.1-48.6-21.7-48.6-48.6 0-26.8 21.8-48.6 48.6-48.6 26.9 0 48.6 21.8 48.6 48.6"/>
			<path class="st6" d="m50.8 4.4c-25.1 0-45.4 20.4-45.4 45.5s20.4 45.5 45.5 45.5 45.5-20.4 45.5-45.5c-0.1-25.1-20.5-45.5-45.6-45.5m0 3.2c23.3 0 42.3 19 42.3 42.3 0 9.8-3.4 18.8-9 26-3.7-0.3-8.8-0.8-11.3-1.1-4.5-0.6-7.8-1.8-8.6-7.8-0.3-2.7-0.2-3.2-0.2-5.5 0.2-0.4 2.1-2.3 3.7-11.5 0.6-0.1 1.6 0 2.6-1.9s2.1-3.9 2.8-8.4c0.1-2.5-0.2-5-1.6-5.4-1.2-0.1-0.8-0.1-1.6 0 0.1-0.6 0-6.2-0.3-8.7-0.3-2.4-1.5-14.9-18.7-14.9s-18.5 12.5-18.7 14.9c-0.3 2.4-0.3 8.1-0.3 8.7-0.9-0.1-0.4-0.1-1.6 0-1.4 0.4-1.7 2.9-1.6 5.4 0.8 4.5 1.8 6.5 2.8 8.4 0.2 0.4 0.4 0.7 0.6 0.9 0.3 2.2 0.9 6 0.1 7.1-0.4 0.1-0.6 0.4-0.6 0.8s0.4 0.8 0.8 0.7h0.3l-0.4 0.6c-0.3 0.1-0.5 0.4-0.5 0.7 0 0.4 0.4 0.8 0.8 0.7h0.3l-0.5 0.7c-0.3 0.1-0.6 0.4-0.6 0.7 0 0.4 0.3 0.8 0.8 0.8h0.2l-0.5 0.6c-0.3 0.1-0.6 0.4-0.6 0.7 0 0.4 0.3 0.7 0.7 0.8h0.3l-0.5 0.6c-0.3 0.1-0.6 0.3-0.6 0.7s0.3 0.8 0.7 0.8h0.2l-0.5 0.6c-0.3 0.1-0.6 0.3-0.6 0.7s0.3 0.8 0.7 0.8l0.9 0.1c-0.3 2.1-1.3 4.8-1.8 6-0.7 0.2-1.4 0.3-2.2 0.4-3 0.4-7.9 1-11.3 1.2-5.7-7.2-9.1-16.3-9.1-26.1-0.1-23.2 18.9-42.1 42.2-42.1m-17.2 59.3h-0.2l0.6-0.6c0.3-0.1 0.5-0.4 0.5-0.7 0-0.4-0.3-0.8-0.7-0.8h-0.2l0.6-0.7c0.3-0.1 0.5-0.4 0.5-0.7 0-0.4-0.3-0.8-0.7-0.8h-0.2l0.7-0.7 0.3-0.3c0-0.1 0.1-0.2 0.1-0.3 0-0.4-0.3-0.8-0.8-0.8h-0.2l0.6-0.8c0.2-0.1 0.4-0.4 0.4-0.7 0-0.4-0.4-0.8-0.8-0.7h-0.2l0.6-0.7c0.2-0.1 0.4-0.4 0.3-0.7 0-0.4-0.4-0.8-0.8-0.7h-0.2c0.7-0.7 0.1-4.7-0.1-6.2 0.2 0.1 0.4 0.1 0.6 0.1 1.6 9.2 3.5 11 3.7 11.5 0 2.3 0.1 2.8-0.2 5.5-0.6 4.2-2.4 6.1-5.1 7 0.5-1.3 1.4-3.7 1.6-5.9 0.1-0.1 0.1-0.2 0.2-0.4-0.2-0.5-0.5-0.9-0.9-0.9m19.8-19.3h-5.2c-0.4 0-0.7-0.3-0.7-0.7s0.3-0.7 0.7-0.7h5.2c0.4 0 0.7 0.3 0.7 0.7s-0.3 0.7-0.7 0.7m0.1 1.1s-1.1 1.3-1.3 1.5c-0.2 0.3-0.3 0.4-1 0.4h-1.1c-0.4 0-0.5-0.2-0.8-0.5-0.2-0.2-1.3-1.4-1.3-1.4h5.5zm0.1-3.4h-5.6c-0.4 0-0.7-0.3-0.7-0.7s0.3-0.7 0.7-0.7h5.6c0.4 0 0.7 0.3 0.7 0.7 0 0.3-0.3 0.7-0.7 0.7m-6.4-2.6l-0.1-0.6-0.1-0.2s-0.9-0.7-1-3.4c-0.5-1.7-2.3-4.8-2.7-5.8s-2.1-4.4-0.3-8.4c1.9-3.7 5.1-5.1 7.8-5.1s5.9 1.4 7.8 5.1c1.8 4 0.1 7.4-0.3 8.4s-2.2 4.1-2.7 5.8c-0.1 2.7-1 3.4-1 3.4l-0.1 0.2s-0.1 0.3-0.1 0.6h-7.2z"/>
		</g>
</svg>
