<svg xmlns="http://www.w3.org/2000/svg" xmlns:xlink="http://www.w3.org/1999/xlink" viewBox="0 0 394.79 97.25"><defs><style>.a{fill:none;}.b{clip-path:url(#a);}.c{clip-path:url(#b);}.d{fill:#221d58;}.e{clip-path:url(#c);}.f{clip-path:url(#d);}.g{fill:#fff;}</style><clipPath id="a" transform="translate(-2.19 -1.5)"><rect class="a" x="104.94" y="26" width="292.04" height="47.52"/></clipPath><clipPath id="b" transform="translate(-2.19 -1.5)"><rect class="a" x="103.25" y="24.61" width="296" height="49.75"/></clipPath><clipPath id="c" transform="translate(-2.19 -1.5)"><rect class="a" x="2.19" y="1.5" width="97.25" height="97.25"/></clipPath><clipPath id="d" transform="translate(-2.19 -1.5)"><rect class="a" x="1.57" y="0.35" width="98.49" height="99.54"/></clipPath></defs><title>tc_logo_horizontal_01</title><g class="b"><g class="c"><path class="d" d="M356.53,40.91l4.22,16.24c.92,3.56,1.78,6.86,2.38,10.16h.2c.73-3.23,1.78-6.67,2.84-10.1l5.21-16.3h4.88l5,16c1.19,3.83,2.11,7.19,2.84,10.43h.2A96,96,0,0,1,386.69,57l4.55-16H397l-10.3,31.94h-5.28l-4.88-15.24a106.51,106.51,0,0,1-2.84-10.49h-.13a94.56,94.56,0,0,1-2.9,10.56L365.5,72.86h-5.28l-9.64-31.94Z" transform="translate(-2.19 -1.5)"/><path class="d" d="M325.9,57.94c.13,7.85,5.15,11.09,11,11.09a21,21,0,0,0,8.84-1.65l1,4.16a25.87,25.87,0,0,1-10.62,2c-9.83,0-15.71-6.47-15.71-16.1s5.68-17.22,15-17.22c10.43,0,13.2,9.17,13.2,15a21.72,21.72,0,0,1-.2,2.71Zm17-4.16c.06-3.7-1.52-9.44-8.05-9.44-5.87,0-8.45,5.41-8.91,9.44Z" transform="translate(-2.19 -1.5)"/><path class="d" d="M303.26,50.88c0-3.76-.07-7-.26-10h5.08l.2,6.27h.26c1.45-4.29,4.95-7,8.84-7a6.27,6.27,0,0,1,1.65.2v5.48a8.77,8.77,0,0,0-2-.2c-4.09,0-7,3.1-7.79,7.46a16.33,16.33,0,0,0-.26,2.71v17h-5.74Z" transform="translate(-2.19 -1.5)"/><path class="d" d="M298,71.4c-2.11,1.06-6.34,2.11-11.75,2.11-12.54,0-22-7.92-22-22.5,0-13.92,9.44-23.36,23.23-23.36,5.54,0,9,1.19,10.56,2l-1.38,4.68a20.92,20.92,0,0,0-9-1.85c-10.43,0-17.36,6.67-17.36,18.35,0,10.89,6.27,17.88,17.09,17.88a23,23,0,0,0,9.37-1.85Z" transform="translate(-2.19 -1.5)"/><path class="d" d="M230.53,55.57h.13c.79-1.12,1.91-2.51,2.84-3.63l9.37-11h7L237.53,54l14.06,18.81h-7.06l-11-15.31-3,3.3v12h-5.74V26h5.74Z" transform="translate(-2.19 -1.5)"/><path class="d" d="M189.68,49.56c0-3.3-.07-6-.26-8.65h5.15l.33,5.28H195a11.75,11.75,0,0,1,10.56-6c4.42,0,11.28,2.64,11.28,13.6V72.86h-5.81V54.44c0-5.15-1.91-9.44-7.39-9.44a8.52,8.52,0,0,0-8.18,8.65v19.2h-5.81Z" transform="translate(-2.19 -1.5)"/><path class="d" d="M182.22,31.94a3.6,3.6,0,0,1-7.19,0,3.54,3.54,0,0,1,3.63-3.63,3.45,3.45,0,0,1,3.56,3.63m-6.47,9h5.81V72.86h-5.81Z" transform="translate(-2.19 -1.5)"/><path class="d" d="M140.64,26h5.81V45.93h.13a10.78,10.78,0,0,1,4.16-4.09,12,12,0,0,1,5.94-1.65c4.29,0,11.15,2.64,11.15,13.66v19H162V54.51c0-5.15-1.91-9.5-7.39-9.5a8.34,8.34,0,0,0-7.79,5.81,7,7,0,0,0-.4,2.77V72.86h-5.81Z" transform="translate(-2.19 -1.5)"/><polygon class="d" points="116.28 31.76 102.75 31.76 102.75 26.88 135.68 26.88 135.68 31.76 122.09 31.76 122.09 71.36 116.28 71.36 116.28 31.76"/></g></g><g class="e"><g class="f"><path class="g" d="M99.44,50.13A48.63,48.63,0,1,1,50.81,1.5,48.62,48.62,0,0,1,99.44,50.13" transform="translate(-2.19 -1.5)"/><path class="d" d="M50.81,4.4A45.46,45.46,0,1,0,96.27,49.86,45.51,45.51,0,0,0,50.81,4.4m0,3.15a42.27,42.27,0,0,1,33.34,68.3c-3.7-.26-8.78-.77-11.29-1.1C68.31,74.17,65,73,64.2,67A39.3,39.3,0,0,1,64,61.55c.22-.43,2.11-2.27,3.74-11.48.65-.11,1.57,0,2.6-1.95a23.73,23.73,0,0,0,2.82-8.45c.05-2.49-.22-5-1.63-5.36a8,8,0,0,0-1.62,0c.05-.6,0-6.23-.27-8.67S68.1,10.69,50.87,10.69,32.41,23.2,32.13,25.64s-.33,8.07-.27,8.67a8,8,0,0,0-1.63,0c-1.41.38-1.68,2.87-1.62,5.36a23.73,23.73,0,0,0,2.82,8.45,5.55,5.55,0,0,0,.62.94c.26,2.2.86,6,.11,7.15a.76.76,0,0,0-.61.78.78.78,0,0,0,.81.73l.31,0-.45.63a.76.76,0,0,0-.53.75.77.77,0,0,0,.8.74h.27l-.51.68a.76.76,0,0,0,.18,1.5l0,0v0h.21l-.5.59a.76.76,0,0,0-.6.7h0a.77.77,0,0,0,.7.78l0,0,0,0h.27l-.52.6a.76.76,0,0,0-.64.7.78.78,0,0,0,.73.81h.24l-.49.58a.76.76,0,0,0-.61.69.78.78,0,0,0,.71.82l.88.06a28.73,28.73,0,0,1-1.81,6c-.69.15-1.42.28-2.19.38-3,.4-7.95,1-11.32,1.21A42.27,42.27,0,0,1,50.81,7.56M33.55,66.88l-.22,0,.55-.62a.77.77,0,0,0-.21-1.5h-.18l.59-.66a.77.77,0,0,0-.26-1.48h-.17l.67-.74a.77.77,0,0,0,.27-.3h0a.75.75,0,0,0,.08-.33.77.77,0,0,0-.77-.77h-.23l.62-.8a.77.77,0,0,0,.39-.69.77.77,0,0,0-.8-.74h-.23l.55-.74a.76.76,0,0,0,.34-.66.77.77,0,0,0-.81-.73H33.5c.67-.69.12-4.69-.11-6.15.23.05.45.07.64.1,1.63,9.21,3.52,11,3.74,11.48A39.28,39.28,0,0,1,37.55,67c-.58,4.24-2.42,6.06-5.07,7a27.64,27.64,0,0,0,1.63-5.9.75.75,0,0,0,.16-.39.77.77,0,0,0-.71-.82M53.44,47.63H48.19a.69.69,0,0,1,0-1.37h5.25a.69.69,0,0,1,0,1.37m.07,1.08s-1.12,1.3-1.28,1.47a1.05,1.05,0,0,1-1,.43H50.15c-.4,0-.5-.22-.75-.46s-1.28-1.43-1.28-1.43Zm.09-3.46H48a.69.69,0,0,1,0-1.37H53.6a.69.69,0,0,1,0,1.37m-6.41-2.59-.11-.61L47,41.87s-.92-.67-1-3.38c-.51-1.69-2.28-4.82-2.7-5.81A9.94,9.94,0,0,1,43,24.3a8.48,8.48,0,0,1,15.6,0,9.93,9.93,0,0,1-.27,8.38c-.41,1-2.19,4.12-2.7,5.81-.07,2.72-1,3.38-1,3.38l-.11.18a3.51,3.51,0,0,0-.11.61Z" transform="translate(-2.19 -1.5)"/></g></g></svg>