<?xml version="1.0" encoding="UTF-8" standalone="no"?>
<!-- Created with Inkscape (http://www.inkscape.org/) -->

<svg
   version="1.1"
   id="svg2"
   xml:space="preserve"
   width="533.33331"
   height="133.33333"
   viewBox="0 0 533.33331 133.33333"
   sodipodi:docname="Think Crew Logo Horizontal 01 white.ai"
   xmlns:inkscape="http://www.inkscape.org/namespaces/inkscape"
   xmlns:sodipodi="http://sodipodi.sourceforge.net/DTD/sodipodi-0.dtd"
   xmlns="http://www.w3.org/2000/svg"
   xmlns:svg="http://www.w3.org/2000/svg"><defs
     id="defs6"><clipPath
       clipPathUnits="userSpaceOnUse"
       id="clipPath18"><path
         d="M 104.937,26.483 H 396.981 V 73.999 H 104.937 Z"
         id="path16" /></clipPath><clipPath
       clipPathUnits="userSpaceOnUse"
       id="clipPath60"><path
         d="m 2.187,1.25 h 97.25 V 98.5 H 2.187 Z"
         id="path58" /></clipPath></defs><sodipodi:namedview
     id="namedview4"
     pagecolor="#ffffff"
     bordercolor="#666666"
     borderopacity="0"
     inkscape:pageshadow="2"
     inkscape:pageopacity="0.0"
     inkscape:pagecheckerboard="0" /><g
     id="g8"
     inkscape:groupmode="layer"
     inkscape:label="Think Crew Logo Horizontal 01 white"
     transform="matrix(1.3333333,0,0,-1.3333333,0,133.33333)"><path
       d="M 0,0 H 400 V 100 H 0 Z"
       style="fill:#a6a8ab;fill-opacity:0;fill-rule:nonzero;stroke:none"
       id="path10" /><g
       id="g12"><g
         id="g14"
         clip-path="url(#clipPath18)"><g
           id="g20"
           transform="translate(356.5259,59.085)"><path
             d="m 0,0 4.224,-16.235 c 0.924,-3.563 1.782,-6.863 2.376,-10.163 h 0.198 c 0.725,3.234 1.782,6.666 2.838,10.097 L 14.85,0 h 4.882 l 4.951,-15.971 c 1.187,-3.827 2.111,-7.193 2.838,-10.427 h 0.197 c 0.528,3.234 1.386,6.6 2.442,10.361 L 34.714,0 h 5.741 L 30.16,-31.941 h -5.28 l -4.883,15.244 c -1.122,3.564 -2.046,6.732 -2.838,10.493 h -0.132 c -0.792,-3.827 -1.782,-7.127 -2.904,-10.559 L 8.976,-31.941 H 3.696 L -5.939,0 Z"
             style="fill:#ffffff;fill-opacity:1;fill-rule:nonzero;stroke:none"
             id="path22" /></g><g
           id="g24"
           transform="translate(342.9292,46.2159)"><path
             d="m 0,0 c 0.065,3.696 -1.519,9.438 -8.052,9.438 -5.873,0 -8.447,-5.412 -8.909,-9.438 z m -17.026,-4.158 c 0.131,-7.853 5.147,-11.087 10.954,-11.087 4.158,0 6.666,0.726 8.843,1.65 l 0.991,-4.157 c -2.046,-0.924 -5.544,-1.98 -10.625,-1.98 -9.834,0 -15.707,6.467 -15.707,16.103 0,9.634 5.675,17.224 14.98,17.224 10.428,0 13.199,-9.173 13.199,-15.047 0,-1.188 -0.131,-2.111 -0.198,-2.706 z"
             style="fill:#ffffff;fill-opacity:1;fill-rule:nonzero;stroke:none"
             id="path26" /></g><g
           id="g28"
           transform="translate(303.2641,49.1197)"><path
             d="M 0,0 C 0,3.762 -0.065,6.996 -0.264,9.965 H 4.817 L 5.016,3.696 h 0.263 c 1.452,4.289 4.95,6.995 8.844,6.995 0.66,0 1.122,-0.066 1.649,-0.198 V 5.016 C 15.179,5.147 14.585,5.213 13.793,5.213 9.701,5.213 6.798,2.112 6.006,-2.244 5.874,-3.036 5.741,-3.959 5.741,-4.95 V -21.976 H 0 Z"
             style="fill:#ffffff;fill-opacity:1;fill-rule:nonzero;stroke:none"
             id="path30" /></g><g
           id="g32"
           transform="translate(297.9819,28.5953)"><path
             d="m 0,0 c -2.111,-1.056 -6.335,-2.112 -11.747,-2.112 -12.539,0 -21.976,7.92 -21.976,22.505 0,13.924 9.437,23.361 23.23,23.361 5.544,0 9.042,-1.188 10.559,-1.98 l -1.385,-4.685 c -2.178,1.056 -5.281,1.848 -8.976,1.848 -10.427,0 -17.356,-6.666 -17.356,-18.347 0,-10.889 6.269,-17.884 17.092,-17.884 3.497,0 7.062,0.726 9.372,1.848 z"
             style="fill:#ffffff;fill-opacity:1;fill-rule:nonzero;stroke:none"
             id="path34" /></g><g
           id="g36"
           transform="translate(230.5337,44.4341)"><path
             d="M 0,0 H 0.132 C 0.924,1.122 2.046,2.508 2.97,3.63 l 9.371,11.021 h 6.995 L 6.995,1.518 21.052,-17.291 H 13.991 L 2.97,-1.98 0,-5.28 V -17.291 H -5.741 V 29.565 H 0 Z"
             style="fill:#ffffff;fill-opacity:1;fill-rule:nonzero;stroke:none"
             id="path38" /></g><g
           id="g40"
           transform="translate(189.6802,50.4395)"><path
             d="m 0,0 c 0,3.3 -0.066,6.005 -0.264,8.646 h 5.148 l 0.33,-5.28 h 0.132 c 1.584,3.035 5.279,6.005 10.559,6.005 4.422,0 11.285,-2.64 11.285,-13.595 v -19.072 h -5.808 v 18.413 c 0,5.147 -1.913,9.437 -7.391,9.437 -3.828,0 -6.798,-2.706 -7.787,-5.94 C 5.939,-2.112 5.808,-3.102 5.808,-4.092 V -23.296 H 0 Z"
             style="fill:#ffffff;fill-opacity:1;fill-rule:nonzero;stroke:none"
             id="path42" /></g><path
           d="m 175.754,59.085 h 5.808 V 27.144 h -5.808 z m 6.468,8.976 c 0.066,-1.98 -1.386,-3.564 -3.696,-3.564 -2.045,0 -3.497,1.584 -3.497,3.564 0,2.045 1.517,3.629 3.629,3.629 2.178,0 3.564,-1.584 3.564,-3.629"
           style="fill:#ffffff;fill-opacity:1;fill-rule:nonzero;stroke:none"
           id="path44" /><g
           id="g46"
           transform="translate(140.643,73.9996)"><path
             d="m 0,0 h 5.808 v -19.93 h 0.131 c 0.925,1.65 2.376,3.101 4.158,4.091 1.716,0.99 3.762,1.65 5.94,1.65 4.29,0 11.153,-2.64 11.153,-13.661 v -19.006 h -5.808 v 18.346 c 0,5.148 -1.913,9.504 -7.391,9.504 -3.762,0 -6.731,-2.64 -7.787,-5.808 -0.33,-0.792 -0.396,-1.65 -0.396,-2.771 V -46.856 H 0 Z"
             style="fill:#ffffff;fill-opacity:1;fill-rule:nonzero;stroke:none"
             id="path48" /></g><g
           id="g50"
           transform="translate(118.4663,66.7402)"><path
             d="M 0,0 H -13.529 V 4.883 H 19.402 V 0 H 5.808 V -39.597 H 0 Z"
             style="fill:#ffffff;fill-opacity:1;fill-rule:nonzero;stroke:none"
             id="path52" /></g></g></g><g
       id="g54"><g
         id="g56"
         clip-path="url(#clipPath60)"><g
           id="g62"
           transform="translate(99.4368,49.8749)"><path
             d="m 0,0 c 0,-26.855 -21.77,-48.624 -48.626,-48.624 -26.854,0 -48.624,21.769 -48.624,48.624 0,26.856 21.77,48.626 48.624,48.626 C -21.77,48.626 0,26.856 0,0"
             style="fill:#ffffff;fill-opacity:1;fill-rule:nonzero;stroke:none"
             id="path64" /></g><g
           id="g66"
           transform="translate(47.1906,57.3346)"><path
             d="m 0,0 -0.113,0.615 -0.106,0.179 c 0,0 -0.923,0.666 -0.997,3.382 -0.51,1.69 -2.283,4.816 -2.697,5.815 -0.413,0.999 -2.066,4.355 -0.267,8.376 1.944,3.74 5.079,5.15 7.801,5.15 2.722,0 5.857,-1.41 7.802,-5.15 C 13.221,14.346 11.569,10.99 11.155,9.991 10.742,8.992 8.968,5.866 8.458,4.176 8.385,1.46 7.461,0.794 7.461,0.794 L 7.356,0.615 C 7.356,0.615 7.267,0.308 7.243,0 Z M 6.411,-2.586 H 0.832 c -0.377,0 -0.686,0.308 -0.686,0.686 0,0.378 0.309,0.687 0.686,0.687 h 5.579 c 0.377,0 0.686,-0.309 0.686,-0.687 0,-0.378 -0.309,-0.686 -0.686,-0.686 m -0.094,-3.46 c 0,0 -1.119,-1.295 -1.284,-1.47 C 4.795,-7.767 4.684,-7.941 4.025,-7.941 H 2.96 c -0.402,0 -0.503,0.222 -0.751,0.464 -0.248,0.241 -1.283,1.431 -1.283,1.431 z M 6.246,-4.964 H 0.997 c -0.377,0 -0.686,0.309 -0.686,0.686 0,0.378 0.309,0.687 0.686,0.687 h 5.249 c 0.377,0 0.686,-0.309 0.686,-0.687 0,-0.377 -0.309,-0.686 -0.686,-0.686 m -19.884,-19.248 -0.22,0.015 0.55,0.616 c 0.286,0.101 0.499,0.366 0.516,0.686 0.023,0.423 -0.304,0.789 -0.729,0.811 l -0.184,0.011 0.588,0.656 c 0.271,0.113 0.468,0.372 0.48,0.683 0.014,0.423 -0.32,0.783 -0.744,0.797 l -0.166,0.007 0.667,0.745 c 0.112,0.076 0.207,0.174 0.267,0.297 l 10e-4,0.001 v 0.001 c 0.048,0.1 0.079,0.209 0.079,0.327 0,0.424 -0.347,0.771 -0.771,0.771 h -0.227 l 0.617,0.796 c 0.239,0.139 0.403,0.393 0.392,0.687 -0.015,0.424 -0.375,0.759 -0.799,0.743 l -0.228,-0.007 0.55,0.737 c 0.211,0.147 0.353,0.387 0.34,0.66 -0.02,0.424 -0.384,0.754 -0.808,0.733 l -0.225,-0.01 c 0.672,0.692 0.121,4.688 -0.108,6.152 0.232,-0.052 0.448,-0.071 0.638,-0.101 1.626,-9.208 3.521,-11.049 3.737,-11.483 0,-2.274 0.055,-2.762 -0.216,-5.47 -0.578,-4.238 -2.421,-6.059 -5.072,-6.975 0.483,1.338 1.39,3.749 1.631,5.899 0.083,0.114 0.146,0.241 0.158,0.39 0.03,0.423 -0.292,0.794 -0.714,0.825 M 3.621,35.11 c 23.328,0 42.308,-18.979 42.308,-42.306 0,-9.797 -3.357,-18.818 -8.967,-25.998 -3.698,0.259 -8.778,0.769 -11.291,1.099 -4.55,0.595 -7.853,1.786 -8.665,7.744 -0.272,2.708 -0.218,3.196 -0.218,5.47 0.218,0.434 2.113,2.275 3.738,11.483 0.649,0.108 1.57,0 2.599,1.949 1.03,1.95 2.058,3.899 2.817,8.448 0.053,2.492 -0.218,4.983 -1.626,5.362 -1.191,0.055 -0.758,0.054 -1.624,0 0.054,0.596 0,6.229 -0.271,8.667 -0.271,2.436 -1.517,14.947 -18.739,14.947 -17.223,0 -18.468,-12.511 -18.739,-14.947 -0.271,-2.438 -0.325,-8.071 -0.271,-8.667 -0.867,0.054 -0.433,0.055 -1.625,0 -1.408,-0.379 -1.678,-2.87 -1.624,-5.362 0.758,-4.549 1.787,-6.498 2.816,-8.448 0.212,-0.401 0.416,-0.697 0.617,-0.943 0.262,-2.198 0.859,-6.025 0.114,-7.148 -0.362,-0.078 -0.632,-0.397 -0.613,-0.777 0.021,-0.424 0.385,-0.753 0.808,-0.733 l 0.311,0.015 -0.45,-0.629 c -0.317,-0.105 -0.546,-0.399 -0.533,-0.748 0.014,-0.424 0.374,-0.758 0.798,-0.744 l 0.273,0.011 -0.507,-0.682 c -0.329,-0.089 -0.577,-0.377 -0.577,-0.732 0,-0.421 0.341,-0.764 0.761,-0.769 l 0.016,-0.019 0.013,0.017 h 0.207 l -0.499,-0.588 c -0.329,-0.076 -0.584,-0.353 -0.6,-0.705 l -0.005,-0.005 0.004,-0.005 c -0.012,-0.405 0.297,-0.742 0.697,-0.783 l 0.024,-0.028 0.017,0.019 c 0.002,0 0.004,-0.002 0.006,-0.002 l 0.259,-0.009 -0.519,-0.595 c -0.342,-0.063 -0.616,-0.342 -0.636,-0.704 -0.022,-0.424 0.305,-0.789 0.729,-0.812 l 0.239,-0.013 -0.488,-0.577 c -0.326,-0.071 -0.584,-0.338 -0.61,-0.687 -0.029,-0.423 0.293,-0.794 0.715,-0.825 l 0.881,-0.063 c -0.258,-2.11 -1.346,-4.801 -1.806,-6.007 -0.692,-0.154 -1.422,-0.276 -2.191,-0.376 -3.011,-0.395 -7.95,-1.045 -11.323,-1.213 -5.665,7.197 -9.057,16.263 -9.057,26.112 0,23.327 18.979,42.306 42.307,42.306 m 0,3.152 c -25.066,0 -45.459,-20.393 -45.459,-45.458 0,-25.067 20.393,-45.46 45.459,-45.46 25.067,0 45.459,20.393 45.459,45.46 0,25.065 -20.392,45.458 -45.459,45.458"
             style="fill:#221d58;fill-opacity:1;fill-rule:nonzero;stroke:none"
             id="path68" /></g></g></g></g></svg>
