<svg width="70" height="38" viewBox="0 0 70 38" fill="none" xmlns="http://www.w3.org/2000/svg">
<path d="M56.9684 0.269562H52.9795C51.38 0.269562 50.0529 1.46051 49.8382 3.00286C44.9638 3.16575 42.3138 2.50993 38.4296 3.9663C37.8993 4.16657 37.6291 4.75884 37.8294 5.29023C38.0296 5.82215 38.6219 6.09078 39.1533 5.89051C42.5419 4.62105 44.7294 5.21386 49.8061 5.05898V31.2881H43.7606C31.3961 31.2881 25.7592 15.4069 35.8283 7.72873C36.2806 7.3848 36.3682 6.74073 36.0243 6.28838C35.6814 5.8371 35.0357 5.74952 34.5839 6.09238C33.3652 7.02004 32.311 8.1031 31.4437 9.30259H26.4427V7.31857C26.4427 5.83443 25.2352 4.62693 23.7511 4.62693H20.7401C19.2559 4.62693 18.0484 5.83443 18.0484 7.31857V9.30259C16.6492 9.30259 5.83136 9.30259 4.15176 9.30259C1.86279 9.30259 0 11.1654 0 13.4543V22.8927C0 25.1817 1.86279 27.0445 4.15176 27.0445H18.2012C18.77 27.0445 19.2292 26.5852 19.2292 26.0164C19.2292 25.4487 18.77 24.9884 18.2012 24.9884H9.64613V11.3582H30.1934C28.1325 15.4587 27.975 20.56 30.21 24.9884H22.3134C21.7457 24.9884 21.2854 25.4487 21.2854 26.0164C21.2854 26.5852 21.7457 27.0445 22.3134 27.0445H31.4613C34.2202 30.8593 38.7052 33.3442 43.7606 33.3442H49.8382C50.0529 34.886 51.38 36.077 52.9795 36.077H56.9684C58.7185 36.077 60.1428 34.6532 60.1428 32.9025V30.4149C60.1428 29.8472 59.6819 29.3869 59.1147 29.3869C58.547 29.3869 58.0867 29.8472 58.0867 30.4149V32.9025C58.0867 33.5194 57.5852 34.0214 56.9684 34.0214H52.9795C52.5202 34.0214 52.1245 33.7416 51.953 33.3442C51.8954 33.2086 51.8622 33.059 51.8622 32.9025C51.8622 32.8887 51.7976 3.36869 51.953 3.00286C52.1245 2.60553 52.5202 2.32568 52.9795 2.32568H56.9684C57.5852 2.32568 58.0867 2.82716 58.0867 3.44399V26.3027C58.0867 26.8704 58.547 27.3307 59.1147 27.3307C59.6819 27.3307 60.1428 26.8704 60.1428 26.3027V3.44399C60.1428 1.69389 58.7185 0.269562 56.9684 0.269562ZM7.59001 24.9884H4.15176C2.99659 24.9884 2.05612 24.0479 2.05612 22.8927V13.4543C2.05612 12.2987 2.99659 11.3582 4.15176 11.3582H7.59001V24.9884ZM24.3872 9.30206H20.1046V7.31857C20.1046 6.96823 20.3897 6.68251 20.7406 6.68251H23.7511C24.102 6.68251 24.3872 6.96823 24.3872 7.31857V9.30206Z" fill="url(#paint0_linear_570_93)"/>
<path d="M68.9718 18.0002H62.3137C61.746 18.0002 61.2857 18.4606 61.2857 19.0283C61.2857 19.5965 61.746 20.0564 62.3137 20.0564H68.9718C69.54 20.0564 69.9999 19.5965 69.9999 19.0283C69.9999 18.4606 69.54 18.0002 68.9718 18.0002Z" fill="url(#paint1_linear_570_93)"/>
<path d="M62.7896 14.0963L68.6914 11.0132C69.1945 10.7504 69.3894 10.1293 69.1267 9.62623C68.8634 9.12262 68.2423 8.92875 67.7392 9.19098L61.8379 12.2741C61.3343 12.5368 61.1399 13.1579 61.4026 13.661C61.6654 14.1646 62.2859 14.3596 62.7896 14.0963Z" fill="url(#paint2_linear_570_93)"/>
<path d="M62.3143 6.93459C63.0208 6.93459 62.8686 6.66542 67.9737 2.25251C68.3982 1.87493 68.4367 1.22552 68.0596 0.800947C67.6821 0.376372 67.0321 0.33792 66.6081 0.715498L61.6307 5.13802C60.9236 5.76714 61.3749 6.93459 62.3143 6.93459Z" fill="url(#paint3_linear_570_93)"/>
<path d="M68.6909 27.0439L62.7896 23.9603C62.2865 23.6981 61.6654 23.8925 61.4026 24.3956C61.1393 24.8986 61.3343 25.5198 61.8379 25.783L67.7392 28.8661C68.2439 29.1294 68.8639 28.9334 69.1262 28.4309C69.3894 27.9278 69.1945 27.3067 68.6909 27.0439Z" fill="url(#paint4_linear_570_93)"/>
<path d="M62.9962 31.3821C62.5717 31.0045 61.9217 31.043 61.5452 31.4675C61.1682 31.8921 61.2061 32.5415 61.6307 32.9191C66.74 37.3352 66.5899 37.6012 67.2906 37.6012C68.2295 37.6012 68.6813 36.4332 67.9736 35.8046L62.9962 31.3821Z" fill="url(#paint5_linear_570_93)"/>
<defs>
<linearGradient id="paint0_linear_570_93" x1="0.280001" y1="0.073079" x2="50.3701" y2="55.3362" gradientUnits="userSpaceOnUse">
<stop offset="0.4081" stop-color="#F647BB"/>
<stop offset="1" stop-color="#41B9FF"/>
</linearGradient>
<linearGradient id="paint1_linear_570_93" x1="0.280001" y1="0.073079" x2="50.3701" y2="55.3362" gradientUnits="userSpaceOnUse">
<stop offset="0.4081" stop-color="#F647BB"/>
<stop offset="1" stop-color="#41B9FF"/>
</linearGradient>
<linearGradient id="paint2_linear_570_93" x1="0.280001" y1="0.073079" x2="50.3701" y2="55.3362" gradientUnits="userSpaceOnUse">
<stop offset="0.4081" stop-color="#F647BB"/>
<stop offset="1" stop-color="#41B9FF"/>
</linearGradient>
<linearGradient id="paint3_linear_570_93" x1="0.280001" y1="0.073079" x2="50.3701" y2="55.3362" gradientUnits="userSpaceOnUse">
<stop offset="0.4081" stop-color="#F647BB"/>
<stop offset="1" stop-color="#41B9FF"/>
</linearGradient>
<linearGradient id="paint4_linear_570_93" x1="0.280001" y1="0.073079" x2="50.3701" y2="55.3362" gradientUnits="userSpaceOnUse">
<stop offset="0.4081" stop-color="#F647BB"/>
<stop offset="1" stop-color="#41B9FF"/>
</linearGradient>
<linearGradient id="paint5_linear_570_93" x1="0.280001" y1="0.073079" x2="50.3701" y2="55.3362" gradientUnits="userSpaceOnUse">
<stop offset="0.4081" stop-color="#F647BB"/>
<stop offset="1" stop-color="#41B9FF"/>
</linearGradient>
</defs>
</svg>
