<svg width="70" height="58" viewBox="0 0 70 58" fill="none" xmlns="http://www.w3.org/2000/svg">
<path d="M64.6636 25.352H13.3996V20.624C13.4017 19.8354 13.7159 19.0797 14.2736 18.522C14.8312 17.9643 15.587 17.6501 16.3756 17.648H39.2236C40.6488 17.6459 42.0149 17.0788 43.0227 16.0711C44.0304 15.0634 44.5975 13.6972 44.5996 12.272V2.04802C44.5996 1.72976 44.4732 1.42454 44.2481 1.19949C44.0231 0.974451 43.7179 0.848022 43.3996 0.848022C43.0813 0.848022 42.7761 0.974451 42.5511 1.19949C42.326 1.42454 42.1996 1.72976 42.1996 2.04802V12.272C42.1975 13.0607 41.8833 13.8164 41.3256 14.374C40.768 14.9317 40.0122 15.2459 39.2236 15.248H16.3756C14.9505 15.2501 13.5843 15.8172 12.5765 16.825C11.5688 17.8327 11.0017 19.1989 10.9996 20.624V25.352H5.33561C4.08019 25.3541 2.8768 25.8538 1.98909 26.7415C1.10137 27.6292 0.601725 28.8326 0.599609 30.088V53.2C0.603827 54.4548 1.10415 55.657 1.99141 56.5442C2.87867 57.4315 4.08084 57.9318 5.33561 57.936H64.6636C65.9184 57.9318 67.1205 57.4315 68.0078 56.5442C68.8951 55.657 69.3954 54.4548 69.3996 53.2V30.088C69.3975 28.8326 68.8978 27.6292 68.0101 26.7415C67.1224 25.8538 65.919 25.3541 64.6636 25.352ZM66.9996 53.2C66.9996 53.8196 66.7535 54.4137 66.3154 54.8518C65.8773 55.2899 65.2831 55.536 64.6636 55.536H5.33561C4.71606 55.536 4.12189 55.2899 3.68381 54.8518C3.24572 54.4137 2.99961 53.8196 2.99961 53.2V30.088C2.99961 29.4685 3.24572 28.8743 3.68381 28.4362C4.12189 27.9981 4.71606 27.752 5.33561 27.752H64.6636C65.2831 27.752 65.8773 27.9981 66.3154 28.4362C66.7535 28.8743 66.9996 29.4685 66.9996 30.088V53.2Z" fill="url(#paint0_linear_570_77)"/>
<path d="M12.5996 33.248H9.39961C9.08135 33.248 8.77613 33.3744 8.55108 33.5995C8.32604 33.8245 8.19961 34.1298 8.19961 34.448C8.19961 34.7663 8.32604 35.0715 8.55108 35.2965C8.77613 35.5216 9.08135 35.648 9.39961 35.648H12.5996C12.9179 35.648 13.2231 35.5216 13.4481 35.2965C13.6732 35.0715 13.7996 34.7663 13.7996 34.448C13.7996 34.1298 13.6732 33.8245 13.4481 33.5995C13.2231 33.3744 12.9179 33.248 12.5996 33.248Z" fill="url(#paint1_linear_570_77)"/>
<path d="M18.9996 35.648H22.1996C22.5179 35.648 22.8231 35.5216 23.0481 35.2965C23.2732 35.0715 23.3996 34.7663 23.3996 34.448C23.3996 34.1298 23.2732 33.8245 23.0481 33.5995C22.8231 33.3744 22.5179 33.248 22.1996 33.248H18.9996C18.6813 33.248 18.3761 33.3744 18.1511 33.5995C17.926 33.8245 17.7996 34.1298 17.7996 34.448C17.7996 34.7663 17.926 35.0715 18.1511 35.2965C18.3761 35.5216 18.6813 35.648 18.9996 35.648Z" fill="url(#paint2_linear_570_77)"/>
<path d="M28.5996 35.648H31.7996C32.1179 35.648 32.4231 35.5216 32.6481 35.2965C32.8732 35.0715 32.9996 34.7663 32.9996 34.448C32.9996 34.1298 32.8732 33.8245 32.6481 33.5995C32.4231 33.3744 32.1179 33.248 31.7996 33.248H28.5996C28.2813 33.248 27.9761 33.3744 27.7511 33.5995C27.526 33.8245 27.3996 34.1298 27.3996 34.448C27.3996 34.7663 27.526 35.0715 27.7511 35.2965C27.9761 35.5216 28.2813 35.648 28.5996 35.648Z" fill="url(#paint3_linear_570_77)"/>
<path d="M41.3996 33.248H38.1996C37.8813 33.248 37.5761 33.3744 37.3511 33.5995C37.126 33.8245 36.9996 34.1298 36.9996 34.448C36.9996 34.7663 37.126 35.0715 37.3511 35.2965C37.5761 35.5216 37.8813 35.648 38.1996 35.648H41.3996C41.7179 35.648 42.0231 35.5216 42.2481 35.2965C42.4732 35.0715 42.5996 34.7663 42.5996 34.448C42.5996 34.1298 42.4732 33.8245 42.2481 33.5995C42.0231 33.3744 41.7179 33.248 41.3996 33.248Z" fill="url(#paint4_linear_570_77)"/>
<path d="M50.9996 33.248H47.7996C47.4813 33.248 47.1761 33.3744 46.9511 33.5995C46.726 33.8245 46.5996 34.1298 46.5996 34.448C46.5996 34.7663 46.726 35.0715 46.9511 35.2965C47.1761 35.5216 47.4813 35.648 47.7996 35.648H50.9996C51.3179 35.648 51.6231 35.5216 51.8481 35.2965C52.0732 35.0715 52.1996 34.7663 52.1996 34.448C52.1996 34.1298 52.0732 33.8245 51.8481 33.5995C51.6231 33.3744 51.3179 33.248 50.9996 33.248Z" fill="url(#paint5_linear_570_77)"/>
<path d="M60.5996 33.248H57.3996C57.0813 33.248 56.7761 33.3744 56.5511 33.5995C56.326 33.8245 56.1996 34.1298 56.1996 34.448C56.1996 34.7663 56.326 35.0715 56.5511 35.2965C56.7761 35.5216 57.0813 35.648 57.3996 35.648H60.5996C60.9179 35.648 61.2231 35.5216 61.4481 35.2965C61.6732 35.0715 61.7996 34.7663 61.7996 34.448C61.7996 34.1298 61.6732 33.8245 61.4481 33.5995C61.2231 33.3744 60.9179 33.248 60.5996 33.248Z" fill="url(#paint6_linear_570_77)"/>
<path d="M12.5996 40.448H9.39961C9.08135 40.448 8.77613 40.5744 8.55108 40.7995C8.32604 41.0245 8.19961 41.3298 8.19961 41.648C8.19961 41.9663 8.32604 42.2715 8.55108 42.4965C8.77613 42.7216 9.08135 42.848 9.39961 42.848H12.5996C12.9179 42.848 13.2231 42.7216 13.4481 42.4965C13.6732 42.2715 13.7996 41.9663 13.7996 41.648C13.7996 41.3298 13.6732 41.0245 13.4481 40.7995C13.2231 40.5744 12.9179 40.448 12.5996 40.448Z" fill="url(#paint7_linear_570_77)"/>
<path d="M18.9996 42.848H22.1996C22.5179 42.848 22.8231 42.7216 23.0481 42.4965C23.2732 42.2715 23.3996 41.9663 23.3996 41.648C23.3996 41.3298 23.2732 41.0245 23.0481 40.7995C22.8231 40.5744 22.5179 40.448 22.1996 40.448H18.9996C18.6813 40.448 18.3761 40.5744 18.1511 40.7995C17.926 41.0245 17.7996 41.3298 17.7996 41.648C17.7996 41.9663 17.926 42.2715 18.1511 42.4965C18.3761 42.7216 18.6813 42.848 18.9996 42.848Z" fill="url(#paint8_linear_570_77)"/>
<path d="M28.5996 42.848H31.7996C32.1179 42.848 32.4231 42.7216 32.6481 42.4965C32.8732 42.2715 32.9996 41.9663 32.9996 41.648C32.9996 41.3298 32.8732 41.0245 32.6481 40.7995C32.4231 40.5744 32.1179 40.448 31.7996 40.448H28.5996C28.2813 40.448 27.9761 40.5744 27.7511 40.7995C27.526 41.0245 27.3996 41.3298 27.3996 41.648C27.3996 41.9663 27.526 42.2715 27.7511 42.4965C27.9761 42.7216 28.2813 42.848 28.5996 42.848Z" fill="url(#paint9_linear_570_77)"/>
<path d="M41.3996 40.448H38.1996C37.8813 40.448 37.5761 40.5744 37.3511 40.7995C37.126 41.0245 36.9996 41.3298 36.9996 41.648C36.9996 41.9663 37.126 42.2715 37.3511 42.4965C37.5761 42.7216 37.8813 42.848 38.1996 42.848H41.3996C41.7179 42.848 42.0231 42.7216 42.2481 42.4965C42.4732 42.2715 42.5996 41.9663 42.5996 41.648C42.5996 41.3298 42.4732 41.0245 42.2481 40.7995C42.0231 40.5744 41.7179 40.448 41.3996 40.448Z" fill="url(#paint10_linear_570_77)"/>
<path d="M50.9996 40.448H47.7996C47.4813 40.448 47.1761 40.5744 46.9511 40.7995C46.726 41.0245 46.5996 41.3298 46.5996 41.648C46.5996 41.9663 46.726 42.2715 46.9511 42.4965C47.1761 42.7216 47.4813 42.848 47.7996 42.848H50.9996C51.3179 42.848 51.6231 42.7216 51.8481 42.4965C52.0732 42.2715 52.1996 41.9663 52.1996 41.648C52.1996 41.3298 52.0732 41.0245 51.8481 40.7995C51.6231 40.5744 51.3179 40.448 50.9996 40.448Z" fill="url(#paint11_linear_570_77)"/>
<path d="M60.5996 40.448H57.3996C57.0813 40.448 56.7761 40.5744 56.5511 40.7995C56.326 41.0245 56.1996 41.3298 56.1996 41.648C56.1996 41.9663 56.326 42.2715 56.5511 42.4965C56.7761 42.7216 57.0813 42.848 57.3996 42.848H60.5996C60.9179 42.848 61.2231 42.7216 61.4481 42.4965C61.6732 42.2715 61.7996 41.9663 61.7996 41.648C61.7996 41.3298 61.6732 41.0245 61.4481 40.7995C61.2231 40.5744 60.9179 40.448 60.5996 40.448Z" fill="url(#paint12_linear_570_77)"/>
<path d="M12.5996 47.648H9.39961C9.08135 47.648 8.77613 47.7744 8.55108 47.9995C8.32604 48.2245 8.19961 48.5298 8.19961 48.848C8.19961 49.1663 8.32604 49.4715 8.55108 49.6965C8.77613 49.9216 9.08135 50.048 9.39961 50.048H12.5996C12.9179 50.048 13.2231 49.9216 13.4481 49.6965C13.6732 49.4715 13.7996 49.1663 13.7996 48.848C13.7996 48.5298 13.6732 48.2245 13.4481 47.9995C13.2231 47.7744 12.9179 47.648 12.5996 47.648Z" fill="url(#paint13_linear_570_77)"/>
<path d="M41.3996 47.648H18.9996C18.6813 47.648 18.3761 47.7744 18.1511 47.9995C17.926 48.2245 17.7996 48.5298 17.7996 48.848C17.7996 49.1663 17.926 49.4715 18.1511 49.6965C18.3761 49.9216 18.6813 50.048 18.9996 50.048H41.3996C41.7179 50.048 42.0231 49.9216 42.2481 49.6965C42.4732 49.4715 42.5996 49.1663 42.5996 48.848C42.5996 48.5298 42.4732 48.2245 42.2481 47.9995C42.0231 47.7744 41.7179 47.648 41.3996 47.648Z" fill="url(#paint14_linear_570_77)"/>
<path d="M50.9996 47.648H47.7996C47.4813 47.648 47.1761 47.7744 46.9511 47.9995C46.726 48.2245 46.5996 48.5298 46.5996 48.848C46.5996 49.1663 46.726 49.4715 46.9511 49.6965C47.1761 49.9216 47.4813 50.048 47.7996 50.048H50.9996C51.3179 50.048 51.6231 49.9216 51.8481 49.6965C52.0732 49.4715 52.1996 49.1663 52.1996 48.848C52.1996 48.5298 52.0732 48.2245 51.8481 47.9995C51.6231 47.7744 51.3179 47.648 50.9996 47.648Z" fill="url(#paint15_linear_570_77)"/>
<path d="M60.5996 47.648H57.3996C57.0813 47.648 56.7761 47.7744 56.5511 47.9995C56.326 48.2245 56.1996 48.5298 56.1996 48.848C56.1996 49.1663 56.326 49.4715 56.5511 49.6965C56.7761 49.9216 57.0813 50.048 57.3996 50.048H60.5996C60.9179 50.048 61.2231 49.9216 61.4481 49.6965C61.6732 49.4715 61.7996 49.1663 61.7996 48.848C61.7996 48.5298 61.6732 48.2245 61.4481 47.9995C61.2231 47.7744 60.9179 47.648 60.5996 47.648Z" fill="url(#paint16_linear_570_77)"/>
<defs>
<linearGradient id="paint0_linear_570_77" x1="0.874811" y1="0.547558" x2="73.5094" y2="52.0526" gradientUnits="userSpaceOnUse">
<stop offset="0.4081" stop-color="#F647BB"/>
<stop offset="1" stop-color="#41B9FF"/>
</linearGradient>
<linearGradient id="paint1_linear_570_77" x1="0.874811" y1="0.547558" x2="73.5094" y2="52.0526" gradientUnits="userSpaceOnUse">
<stop offset="0.4081" stop-color="#F647BB"/>
<stop offset="1" stop-color="#41B9FF"/>
</linearGradient>
<linearGradient id="paint2_linear_570_77" x1="0.874811" y1="0.547558" x2="73.5094" y2="52.0526" gradientUnits="userSpaceOnUse">
<stop offset="0.4081" stop-color="#F647BB"/>
<stop offset="1" stop-color="#41B9FF"/>
</linearGradient>
<linearGradient id="paint3_linear_570_77" x1="0.874811" y1="0.547558" x2="73.5094" y2="52.0526" gradientUnits="userSpaceOnUse">
<stop offset="0.4081" stop-color="#F647BB"/>
<stop offset="1" stop-color="#41B9FF"/>
</linearGradient>
<linearGradient id="paint4_linear_570_77" x1="0.874811" y1="0.547558" x2="73.5094" y2="52.0526" gradientUnits="userSpaceOnUse">
<stop offset="0.4081" stop-color="#F647BB"/>
<stop offset="1" stop-color="#41B9FF"/>
</linearGradient>
<linearGradient id="paint5_linear_570_77" x1="0.874811" y1="0.547558" x2="73.5094" y2="52.0526" gradientUnits="userSpaceOnUse">
<stop offset="0.4081" stop-color="#F647BB"/>
<stop offset="1" stop-color="#41B9FF"/>
</linearGradient>
<linearGradient id="paint6_linear_570_77" x1="0.874811" y1="0.547558" x2="73.5094" y2="52.0526" gradientUnits="userSpaceOnUse">
<stop offset="0.4081" stop-color="#F647BB"/>
<stop offset="1" stop-color="#41B9FF"/>
</linearGradient>
<linearGradient id="paint7_linear_570_77" x1="0.874811" y1="0.547558" x2="73.5094" y2="52.0526" gradientUnits="userSpaceOnUse">
<stop offset="0.4081" stop-color="#F647BB"/>
<stop offset="1" stop-color="#41B9FF"/>
</linearGradient>
<linearGradient id="paint8_linear_570_77" x1="0.874811" y1="0.547558" x2="73.5094" y2="52.0526" gradientUnits="userSpaceOnUse">
<stop offset="0.4081" stop-color="#F647BB"/>
<stop offset="1" stop-color="#41B9FF"/>
</linearGradient>
<linearGradient id="paint9_linear_570_77" x1="0.874811" y1="0.547558" x2="73.5094" y2="52.0526" gradientUnits="userSpaceOnUse">
<stop offset="0.4081" stop-color="#F647BB"/>
<stop offset="1" stop-color="#41B9FF"/>
</linearGradient>
<linearGradient id="paint10_linear_570_77" x1="0.874811" y1="0.547558" x2="73.5094" y2="52.0526" gradientUnits="userSpaceOnUse">
<stop offset="0.4081" stop-color="#F647BB"/>
<stop offset="1" stop-color="#41B9FF"/>
</linearGradient>
<linearGradient id="paint11_linear_570_77" x1="0.874811" y1="0.547558" x2="73.5094" y2="52.0526" gradientUnits="userSpaceOnUse">
<stop offset="0.4081" stop-color="#F647BB"/>
<stop offset="1" stop-color="#41B9FF"/>
</linearGradient>
<linearGradient id="paint12_linear_570_77" x1="0.874811" y1="0.547558" x2="73.5094" y2="52.0526" gradientUnits="userSpaceOnUse">
<stop offset="0.4081" stop-color="#F647BB"/>
<stop offset="1" stop-color="#41B9FF"/>
</linearGradient>
<linearGradient id="paint13_linear_570_77" x1="0.874811" y1="0.547558" x2="73.5094" y2="52.0526" gradientUnits="userSpaceOnUse">
<stop offset="0.4081" stop-color="#F647BB"/>
<stop offset="1" stop-color="#41B9FF"/>
</linearGradient>
<linearGradient id="paint14_linear_570_77" x1="0.874811" y1="0.547558" x2="73.5094" y2="52.0526" gradientUnits="userSpaceOnUse">
<stop offset="0.4081" stop-color="#F647BB"/>
<stop offset="1" stop-color="#41B9FF"/>
</linearGradient>
<linearGradient id="paint15_linear_570_77" x1="0.874811" y1="0.547558" x2="73.5094" y2="52.0526" gradientUnits="userSpaceOnUse">
<stop offset="0.4081" stop-color="#F647BB"/>
<stop offset="1" stop-color="#41B9FF"/>
</linearGradient>
<linearGradient id="paint16_linear_570_77" x1="0.874811" y1="0.547558" x2="73.5094" y2="52.0526" gradientUnits="userSpaceOnUse">
<stop offset="0.4081" stop-color="#F647BB"/>
<stop offset="1" stop-color="#41B9FF"/>
</linearGradient>
</defs>
</svg>
