<svg width="53" height="41" viewBox="0 0 53 41" fill="none" xmlns="http://www.w3.org/2000/svg">
<path d="M29.375 34.0354C29.375 33.4585 29.204 32.8946 28.8835 32.415C28.563 31.9354 28.1075 31.5615 27.5745 31.3408C27.0416 31.12 26.4551 31.0622 25.8893 31.1748C25.3236 31.2873 24.8039 31.5651 24.3959 31.973C23.988 32.3809 23.7103 32.9006 23.5977 33.4664C23.4852 34.0322 23.5429 34.6186 23.7637 35.1516C23.9845 35.6845 24.3583 36.14 24.8379 36.4605C25.3176 36.781 25.8815 36.9521 26.4583 36.9521C27.2319 36.9521 27.9738 36.6448 28.5207 36.0978C29.0677 35.5508 29.375 34.809 29.375 34.0354ZM52.2388 14.0883C52.3781 14.2229 52.4891 14.3838 52.5656 14.5617C52.642 14.7396 52.6822 14.931 52.6839 15.1246C52.6856 15.3183 52.6487 15.5103 52.5754 15.6895C52.5021 15.8687 52.3938 16.0316 52.2568 16.1685C52.1199 16.3054 51.9571 16.4137 51.7779 16.487C51.5986 16.5604 51.4066 16.5972 51.213 16.5956C51.0193 16.5939 50.828 16.5537 50.6501 16.4772C50.4721 16.4008 50.3112 16.2897 50.1767 16.1504C47.201 13.1863 43.6919 10.8113 39.8342 9.15041L34.135 14.8496C37.8512 16.0529 41.2282 18.1222 43.9875 20.8871C44.2532 21.1621 44.4002 21.5305 44.3968 21.9129C44.3935 22.2952 44.2401 22.661 43.9697 22.9314C43.6994 23.2018 43.3336 23.3552 42.9512 23.3585C42.5689 23.3618 42.2005 23.2148 41.9254 22.9492C39.1229 20.1492 35.6079 18.1693 31.7608 17.2237L25 23.9729C26.9521 23.7417 28.9311 23.9542 30.7896 24.5946C32.6481 25.235 34.338 26.2867 35.7333 27.6712C35.999 27.9463 36.146 28.3147 36.1427 28.697C36.1393 29.0794 35.986 29.4452 35.7156 29.7156C35.4452 29.986 35.0794 30.1393 34.6971 30.1426C34.3147 30.146 33.9463 29.999 33.6713 29.7333C31.7612 27.8254 29.1731 26.7517 26.4734 26.7473C23.7736 26.743 21.1821 27.8082 19.2658 29.71L8.53251 40.4492C8.25867 40.723 7.88727 40.8768 7.50001 40.8768C7.11275 40.8768 6.74135 40.723 6.46751 40.4492C6.19367 40.1753 6.03983 39.8039 6.03983 39.4167C6.03983 39.0294 6.19367 38.658 6.46751 38.3842L28.2229 16.6317C25.0661 16.3703 21.8901 16.7995 18.9159 17.8895C15.9417 18.9794 13.2405 20.704 11 22.9433C10.725 23.209 10.3566 23.356 9.97422 23.3526C9.59185 23.3493 9.22608 23.196 8.95569 22.9256C8.6853 22.6552 8.53193 22.2894 8.52861 21.907C8.52529 21.5247 8.67228 21.1563 8.93793 20.8812C11.7569 18.0469 15.2234 15.9412 19.0381 14.746C22.8528 13.5508 26.901 13.3021 30.8333 14.0212L36.8417 8.01291C30.9597 6.09396 24.6618 5.83839 18.6437 7.27445C12.6256 8.71052 7.1217 11.7823 2.74001 16.1504C2.46496 16.4161 2.09659 16.563 1.71422 16.5597C1.33185 16.5564 0.966077 16.403 0.69569 16.1326C0.425304 15.8623 0.271933 15.4965 0.26861 15.1141C0.265287 14.7318 0.412279 14.3634 0.677926 14.0883C5.61579 9.16268 11.8629 5.75676 18.6782 4.27459C25.4934 2.79243 32.5908 3.29624 39.1283 5.72624L44.3783 0.476245C44.6522 0.202409 45.0236 0.0485687 45.4108 0.0485687C45.7981 0.0485687 46.1695 0.202409 46.4433 0.476245C46.7172 0.750081 46.871 1.12148 46.871 1.50874C46.871 1.89601 46.7172 2.26741 46.4433 2.54124L42.0304 6.94833C45.8194 8.72201 49.2731 11.1376 52.2388 14.0883Z" fill="url(#paint0_linear_570_88)"/>
<defs>
<linearGradient id="paint0_linear_570_88" x1="0.478217" y1="-0.166317" x2="53.4274" y2="39.83" gradientUnits="userSpaceOnUse">
<stop offset="0.4081" stop-color="#F647BB"/>
<stop offset="1" stop-color="#41B9FF"/>
</linearGradient>
</defs>
</svg>
