<svg width="70" height="48" viewBox="0 0 70 48" fill="none" xmlns="http://www.w3.org/2000/svg">
<path d="M61.5383 47.3077H10.9383C8.23307 47.3077 5.63866 46.2331 3.72579 44.3202C1.81292 42.4073 0.738281 39.8129 0.738281 37.1077C0.738281 34.4025 1.81292 31.8081 3.72579 29.8952C5.63866 27.9823 8.23307 26.9077 10.9383 26.9077H31.9998C32.3058 26.9077 32.5993 27.0293 32.8157 27.2456C33.0321 27.462 33.1537 27.7555 33.1537 28.0615C33.1537 28.3676 33.0321 28.661 32.8157 28.8774C32.5993 29.0938 32.3058 29.2154 31.9998 29.2154H10.9383C8.84511 29.2154 6.83767 30.0469 5.35758 31.527C3.87748 33.0071 3.04597 35.0145 3.04597 37.1077C3.04597 39.2009 3.87748 41.2083 5.35758 42.6884C6.83767 44.1685 8.84511 45 10.9383 45H61.5383C61.8443 45 62.1378 45.1216 62.3542 45.338C62.5706 45.5543 62.6921 45.8478 62.6921 46.1539C62.6921 46.4599 62.5706 46.7533 62.3542 46.9697C62.1378 47.1861 61.8443 47.3077 61.5383 47.3077Z" fill="url(#paint0_linear_570_98)"/>
<path d="M12.5998 38.2308C12.2938 38.2308 12.0003 38.1092 11.7839 37.8928C11.5675 37.6764 11.446 37.3829 11.446 37.0769V32.9769C11.446 32.6709 11.5675 32.3774 11.7839 32.161C12.0003 31.9446 12.2938 31.8231 12.5998 31.8231C12.9058 31.8231 13.1993 31.9446 13.4157 32.161C13.6321 32.3774 13.7537 32.6709 13.7537 32.9769V37.0769C13.7537 37.3829 13.6321 37.6764 13.4157 37.8928C13.1993 38.1092 12.9058 38.2308 12.5998 38.2308Z" fill="url(#paint1_linear_570_98)"/>
<path d="M12.5998 38.2308C12.3311 38.2337 12.0697 38.1427 11.8609 37.9735C11.652 37.8043 11.5088 37.5676 11.4559 37.304C11.403 37.0405 11.4438 36.7668 11.5712 36.5301C11.6986 36.2935 11.9046 36.1087 12.1537 36.0077L15.946 34.4692C16.0866 34.4071 16.2382 34.3737 16.3919 34.371C16.5456 34.3682 16.6983 34.3962 16.841 34.4533C16.9837 34.5104 17.1136 34.5955 17.223 34.7035C17.3324 34.8115 17.4191 34.9402 17.478 35.0822C17.537 35.2242 17.5669 35.3765 17.5662 35.5302C17.5655 35.6839 17.534 35.8359 17.4737 35.9773C17.4134 36.1187 17.3254 36.2467 17.215 36.3536C17.1045 36.4605 16.9739 36.5443 16.8306 36.6L13.0383 38.1385C12.8988 38.195 12.7503 38.2262 12.5998 38.2308Z" fill="url(#paint2_linear_570_98)"/>
<path d="M15.2306 41.3769C15.0615 41.3783 14.8942 41.3416 14.7411 41.2697C14.588 41.1978 14.453 41.0925 14.346 40.9615L11.7075 37.8154C11.6105 37.6987 11.5375 37.5641 11.4925 37.4192C11.4476 37.2743 11.4316 37.1219 11.4456 36.9709C11.4595 36.8198 11.503 36.6729 11.5737 36.5387C11.6444 36.4044 11.7408 36.2854 11.8575 36.1885C11.9742 36.0915 12.1088 36.0184 12.2537 35.9735C12.3986 35.9286 12.551 35.9126 12.702 35.9265C12.8531 35.9404 13 35.984 13.1342 36.0547C13.2685 36.1254 13.3875 36.2218 13.4844 36.3385L16.1537 39.4846C16.2514 39.6004 16.3252 39.7345 16.3708 39.879C16.4164 40.0236 16.4329 40.1757 16.4193 40.3267C16.4057 40.4776 16.3623 40.6244 16.2916 40.7584C16.221 40.8925 16.1244 41.0112 16.0075 41.1077C15.7919 41.2924 15.5143 41.3886 15.2306 41.3769Z" fill="url(#paint3_linear_570_98)"/>
<path d="M10.3921 41.6923C10.1855 41.6909 9.98301 41.6343 9.80553 41.5285C9.62805 41.4227 9.48201 41.2715 9.38246 41.0904C9.28291 40.9093 9.23347 40.705 9.23922 40.4984C9.24498 40.2919 9.30573 40.0906 9.4152 39.9154L11.6229 36.4538C11.7881 36.1958 12.0491 36.0139 12.3485 35.9483C12.6478 35.8826 12.961 35.9386 13.2191 36.1038C13.4771 36.2691 13.659 36.5301 13.7246 36.8294C13.7903 37.1288 13.7343 37.4419 13.569 37.7L11.3614 41.1539C11.2585 41.3183 11.1157 41.4539 10.9462 41.5481C10.7767 41.6423 10.586 41.6919 10.3921 41.6923Z" fill="url(#paint4_linear_570_98)"/>
<path d="M12.5998 38.2308C12.5027 38.2414 12.4047 38.2414 12.3075 38.2308L8.33828 37.1692C8.04246 37.0897 7.79037 36.8958 7.63745 36.6304C7.48454 36.365 7.44333 36.0497 7.5229 35.7538C7.60246 35.458 7.79628 35.2059 8.06172 35.053C8.32715 34.9001 8.64246 34.8589 8.93828 34.9385L12.8998 36C13.0513 36.0192 13.1976 36.068 13.3303 36.1438C13.4629 36.2195 13.5793 36.3206 13.6729 36.4413C13.7665 36.562 13.8354 36.7 13.8756 36.8473C13.9159 36.9947 13.9267 37.1485 13.9075 37.3C13.8883 37.4515 13.8395 37.5978 13.7638 37.7304C13.688 37.8631 13.5869 37.9795 13.4662 38.0731C13.3455 38.1667 13.2075 38.2355 13.0602 38.2758C12.9129 38.316 12.759 38.3269 12.6075 38.3077L12.5998 38.2308Z" fill="url(#paint5_linear_570_98)"/>
<path d="M28.0921 38.2308C27.9393 38.2328 27.7876 38.2045 27.6458 38.1474C27.5041 38.0903 27.3751 38.0057 27.2663 37.8983C27.1575 37.791 27.0711 37.6631 27.0122 37.5221C26.9532 37.3811 26.9229 37.2298 26.9229 37.0769V32.9769C26.9229 32.6709 27.0445 32.3774 27.2609 32.161C27.4772 31.9446 27.7707 31.8231 28.0767 31.8231C28.3828 31.8231 28.6763 31.9446 28.8926 32.161C29.109 32.3774 29.2306 32.6709 29.2306 32.9769V37.0769C29.2306 37.3803 29.1112 37.6715 28.8981 37.8874C28.685 38.1034 28.3955 38.2267 28.0921 38.2308Z" fill="url(#paint6_linear_570_98)"/>
<path d="M28.0921 38.2308C27.8273 38.2233 27.573 38.1249 27.3722 37.952C27.1713 37.7792 27.036 37.5425 26.9891 37.2817C26.9422 37.0209 26.9864 36.7519 27.1145 36.5199C27.2425 36.2879 27.4465 36.107 27.6921 36.0077L31.4844 34.4692C31.6282 34.3771 31.7906 34.318 31.96 34.2962C32.1293 34.2744 32.3014 34.2905 32.4638 34.3432C32.6262 34.396 32.7748 34.4842 32.899 34.6014C33.0232 34.7185 33.1199 34.8618 33.182 35.0209C33.2441 35.1799 33.2701 35.3508 33.2582 35.5211C33.2463 35.6915 33.1967 35.857 33.1131 36.0059C33.0294 36.1547 32.9138 36.2832 32.7745 36.3819C32.6352 36.4807 32.4757 36.5473 32.3075 36.5769L28.5152 38.1154C28.3822 38.1789 28.2389 38.2179 28.0921 38.2308Z" fill="url(#paint7_linear_570_98)"/>
<path d="M30.7229 41.3769C30.554 41.3766 30.3873 41.3393 30.2344 41.2675C30.0816 41.1957 29.9464 41.0913 29.8383 40.9615L27.2075 37.8154C27.0298 37.5789 26.9498 37.2832 26.9838 36.9894C27.0179 36.6956 27.1635 36.4261 27.3906 36.2365C27.6176 36.047 27.9088 35.9518 28.204 35.9708C28.4992 35.9898 28.7758 36.1214 28.9767 36.3385L31.6075 39.4846C31.7511 39.652 31.8433 39.8572 31.8732 40.0756C31.903 40.2941 31.8693 40.5165 31.7759 40.7163C31.6825 40.916 31.5335 41.0846 31.3467 41.2017C31.16 41.3189 30.9434 41.3797 30.7229 41.3769Z" fill="url(#paint8_linear_570_98)"/>
<path d="M25.8844 41.6923C25.6785 41.6895 25.477 41.632 25.3005 41.5256C25.1241 41.4193 24.9792 41.2679 24.8806 41.0871C24.7819 40.9063 24.7331 40.7024 24.7392 40.4965C24.7453 40.2907 24.8061 40.0901 24.9152 39.9154L27.1229 36.4539C27.2047 36.3261 27.3109 36.2156 27.4354 36.1289C27.5599 36.0422 27.7003 35.9808 27.8485 35.9483C27.9967 35.9158 28.1499 35.9128 28.2992 35.9395C28.4486 35.9662 28.5913 36.022 28.719 36.1039C28.8468 36.1857 28.9573 36.2919 29.044 36.4164C29.1307 36.5409 29.1921 36.6812 29.2246 36.8294C29.2571 36.9777 29.2601 37.1308 29.2334 37.2802C29.2067 37.4296 29.1509 37.5722 29.069 37.7L26.8614 41.1539C26.7568 41.3184 26.6125 41.4539 26.4418 41.548C26.271 41.6421 26.0794 41.6917 25.8844 41.6923Z" fill="url(#paint9_linear_570_98)"/>
<path d="M28.0921 38.2308C27.9924 38.242 27.8918 38.242 27.7921 38.2308L23.846 37.1308C23.5502 37.0512 23.2981 36.8574 23.1451 36.5919C22.9922 36.3265 22.951 36.0112 23.0306 35.7154C23.1102 35.4196 23.304 35.1675 23.5694 35.0146C23.8348 34.8616 24.1502 34.8204 24.446 34.9L28.4075 35.9615C28.7135 36.0013 28.9912 36.161 29.1795 36.4056C29.3677 36.6501 29.4511 36.9594 29.4114 37.2654C29.3716 37.5714 29.2119 37.8491 28.9673 38.0373C28.7228 38.2256 28.4135 38.309 28.1075 38.2692L28.0921 38.2308Z" fill="url(#paint10_linear_570_98)"/>
<path d="M60.9921 47.3154H48.1844C46.032 47.3113 43.969 46.4539 42.4478 44.9312C40.9265 43.4085 40.0711 41.3447 40.069 39.1923V26.3923C40.0711 24.2406 40.9268 22.1776 42.4482 20.6561C43.9697 19.1346 46.0327 18.279 48.1844 18.2769H60.9921C63.1438 18.279 65.2068 19.1346 66.7283 20.6561C68.2498 22.1776 69.1055 24.2406 69.1075 26.3923V39.1923C69.1055 41.3447 68.2501 43.4085 66.7288 44.9312C65.2075 46.4539 63.1445 47.3113 60.9921 47.3154ZM48.1844 20.5846C46.6448 20.5867 45.1687 21.1992 44.08 22.2879C42.9913 23.3766 42.3788 24.8526 42.3767 26.3923V39.1923C42.3767 40.7333 42.9884 42.2113 44.0773 43.3017C45.1662 44.3921 46.6434 45.0057 48.1844 45.0077H60.9921C62.5331 45.0057 64.0103 44.3921 65.0993 43.3017C66.1882 42.2113 66.7998 40.7333 66.7998 39.1923V26.3923C66.7978 24.8526 66.1852 23.3766 65.0965 22.2879C64.0078 21.1992 62.5318 20.5867 60.9921 20.5846H48.1844Z" fill="url(#paint11_linear_570_98)"/>
<path d="M45.446 20.8385C45.14 20.8385 44.8465 20.7169 44.6301 20.5005C44.4137 20.2841 44.2921 19.9906 44.2921 19.6846V9.43077C44.2921 4.60769 48.8537 0.684616 54.4614 0.684616H54.7152C60.3229 0.684616 64.8844 4.60769 64.8844 9.43077V19.4308C64.8844 19.7368 64.7629 20.0303 64.5465 20.2467C64.3301 20.4631 64.0366 20.5846 63.7306 20.5846C63.4246 20.5846 63.1311 20.4631 62.9147 20.2467C62.6983 20.0303 62.5767 19.7368 62.5767 19.4308V9.43077C62.5767 5.88462 59.0537 2.99231 54.7152 2.99231H54.4614C50.1229 2.99231 46.5998 5.88462 46.5998 9.43077V19.6846C46.5998 19.9906 46.4783 20.2841 46.2619 20.5005C46.0455 20.7169 45.752 20.8385 45.446 20.8385Z" fill="url(#paint12_linear_570_98)"/>
<path d="M59.8152 39.1769C59.5095 39.1758 59.2165 39.0542 58.9998 38.8385L48.546 28.3846C48.3287 28.1684 48.2062 27.8747 48.2055 27.5681C48.2048 27.2616 48.3259 26.9673 48.5421 26.75C48.7584 26.5327 49.0521 26.4103 49.3586 26.4095C49.6652 26.4088 49.9595 26.5299 50.1767 26.7462L60.6306 37.2077C60.7918 37.3691 60.9015 37.5746 60.9459 37.7983C60.9904 38.0219 60.9675 38.2538 60.8803 38.4645C60.793 38.6752 60.6453 38.8553 60.4557 38.9821C60.2662 39.1089 60.0433 39.1767 59.8152 39.1769Z" fill="url(#paint13_linear_570_98)"/>
<path d="M49.3614 39.1769C49.1333 39.1767 48.9104 39.1089 48.7208 38.9821C48.5313 38.8553 48.3836 38.6752 48.2963 38.4645C48.2091 38.2538 48.1862 38.0219 48.2306 37.7983C48.2751 37.5746 48.3848 37.3691 48.546 37.2077L58.9998 26.7462C59.2171 26.5299 59.5114 26.4088 59.8179 26.4095C60.1245 26.4103 60.4182 26.5327 60.6344 26.75C60.8507 26.9673 60.9718 27.2616 60.9711 27.5681C60.9703 27.8747 60.8479 28.1684 60.6306 28.3846L50.1767 38.8385C49.9601 39.0542 49.6671 39.1758 49.3614 39.1769Z" fill="url(#paint14_linear_570_98)"/>
<defs>
<linearGradient id="paint0_linear_570_98" x1="1.01176" y1="0.43919" x2="63.2018" y2="54.0895" gradientUnits="userSpaceOnUse">
<stop offset="0.4081" stop-color="#F647BB"/>
<stop offset="1" stop-color="#41B9FF"/>
</linearGradient>
<linearGradient id="paint1_linear_570_98" x1="1.01176" y1="0.43919" x2="63.2018" y2="54.0895" gradientUnits="userSpaceOnUse">
<stop offset="0.4081" stop-color="#F647BB"/>
<stop offset="1" stop-color="#41B9FF"/>
</linearGradient>
<linearGradient id="paint2_linear_570_98" x1="1.01176" y1="0.43919" x2="63.2018" y2="54.0895" gradientUnits="userSpaceOnUse">
<stop offset="0.4081" stop-color="#F647BB"/>
<stop offset="1" stop-color="#41B9FF"/>
</linearGradient>
<linearGradient id="paint3_linear_570_98" x1="1.01176" y1="0.43919" x2="63.2018" y2="54.0895" gradientUnits="userSpaceOnUse">
<stop offset="0.4081" stop-color="#F647BB"/>
<stop offset="1" stop-color="#41B9FF"/>
</linearGradient>
<linearGradient id="paint4_linear_570_98" x1="1.01176" y1="0.43919" x2="63.2018" y2="54.0895" gradientUnits="userSpaceOnUse">
<stop offset="0.4081" stop-color="#F647BB"/>
<stop offset="1" stop-color="#41B9FF"/>
</linearGradient>
<linearGradient id="paint5_linear_570_98" x1="1.01176" y1="0.43919" x2="63.2018" y2="54.0895" gradientUnits="userSpaceOnUse">
<stop offset="0.4081" stop-color="#F647BB"/>
<stop offset="1" stop-color="#41B9FF"/>
</linearGradient>
<linearGradient id="paint6_linear_570_98" x1="1.01176" y1="0.43919" x2="63.2018" y2="54.0895" gradientUnits="userSpaceOnUse">
<stop offset="0.4081" stop-color="#F647BB"/>
<stop offset="1" stop-color="#41B9FF"/>
</linearGradient>
<linearGradient id="paint7_linear_570_98" x1="1.01176" y1="0.43919" x2="63.2018" y2="54.0895" gradientUnits="userSpaceOnUse">
<stop offset="0.4081" stop-color="#F647BB"/>
<stop offset="1" stop-color="#41B9FF"/>
</linearGradient>
<linearGradient id="paint8_linear_570_98" x1="1.01176" y1="0.43919" x2="63.2018" y2="54.0895" gradientUnits="userSpaceOnUse">
<stop offset="0.4081" stop-color="#F647BB"/>
<stop offset="1" stop-color="#41B9FF"/>
</linearGradient>
<linearGradient id="paint9_linear_570_98" x1="1.01176" y1="0.43919" x2="63.2018" y2="54.0895" gradientUnits="userSpaceOnUse">
<stop offset="0.4081" stop-color="#F647BB"/>
<stop offset="1" stop-color="#41B9FF"/>
</linearGradient>
<linearGradient id="paint10_linear_570_98" x1="1.01176" y1="0.43919" x2="63.2018" y2="54.0895" gradientUnits="userSpaceOnUse">
<stop offset="0.4081" stop-color="#F647BB"/>
<stop offset="1" stop-color="#41B9FF"/>
</linearGradient>
<linearGradient id="paint11_linear_570_98" x1="1.01176" y1="0.43919" x2="63.2018" y2="54.0895" gradientUnits="userSpaceOnUse">
<stop offset="0.4081" stop-color="#F647BB"/>
<stop offset="1" stop-color="#41B9FF"/>
</linearGradient>
<linearGradient id="paint12_linear_570_98" x1="1.01176" y1="0.43919" x2="63.2018" y2="54.0895" gradientUnits="userSpaceOnUse">
<stop offset="0.4081" stop-color="#F647BB"/>
<stop offset="1" stop-color="#41B9FF"/>
</linearGradient>
<linearGradient id="paint13_linear_570_98" x1="1.01176" y1="0.43919" x2="63.2018" y2="54.0895" gradientUnits="userSpaceOnUse">
<stop offset="0.4081" stop-color="#F647BB"/>
<stop offset="1" stop-color="#41B9FF"/>
</linearGradient>
<linearGradient id="paint14_linear_570_98" x1="1.01176" y1="0.43919" x2="63.2018" y2="54.0895" gradientUnits="userSpaceOnUse">
<stop offset="0.4081" stop-color="#F647BB"/>
<stop offset="1" stop-color="#41B9FF"/>
</linearGradient>
</defs>
</svg>
