<svg width="64" height="48" viewBox="0 0 64 48" fill="none" xmlns="http://www.w3.org/2000/svg">
<path d="M28.6887 32.75H9.5C8.80875 32.75 8.25 32.19 8.25 31.5C8.25 30.81 8.80875 30.25 9.5 30.25H28.6887C29.38 30.25 29.9387 30.81 29.9387 31.5C29.9387 32.19 29.3787 32.75 28.6887 32.75Z" fill="url(#paint0_linear_570_69)"/>
<path d="M28.6887 17.75H9.5C8.80875 17.75 8.25 17.19 8.25 16.5C8.25 15.81 8.80875 15.25 9.5 15.25H28.6887C29.38 15.25 29.9387 15.81 29.9387 16.5C29.9387 17.19 29.3787 17.75 28.6887 17.75Z" fill="url(#paint1_linear_570_69)"/>
<path d="M27 25.25H2C1.30875 25.25 0.75 24.69 0.75 24C0.75 23.31 1.30875 22.75 2 22.75H27C27.6912 22.75 28.25 23.31 28.25 24C28.25 24.69 27.6912 25.25 27 25.25Z" fill="url(#paint2_linear_570_69)"/>
<path d="M39.5 28.8775C37.0163 28.8775 34.5 27.2025 34.5 24C34.5 20.7975 37.0163 19.1225 39.5 19.1225C41.9837 19.1225 44.5 20.7975 44.5 24C44.5 27.2025 41.9837 28.8775 39.5 28.8775ZM39.5 21.6225C38.3462 21.6225 37 22.245 37 24C37 25.755 38.3462 26.3775 39.5 26.3775C40.6538 26.3775 42 25.755 42 24C42 22.245 40.6538 21.6225 39.5 21.6225Z" fill="url(#paint3_linear_570_69)"/>
<path d="M42.1512 22.5988C41.8312 22.5988 41.5113 22.4763 41.2675 22.2325C40.7788 21.7438 40.7788 20.9538 41.2675 20.465L48.3387 13.3938C48.8275 12.905 49.6175 12.905 50.1063 13.3938C50.595 13.8825 50.595 14.6725 50.1063 15.1613L43.035 22.2325C42.7912 22.4763 42.4712 22.5988 42.1512 22.5988Z" fill="url(#paint4_linear_570_69)"/>
<path d="M35.0812 29.67C34.7612 29.67 34.4412 29.5475 34.1975 29.3038C33.7087 28.8163 33.7087 28.025 34.1975 27.5362L35.965 25.7675C36.4538 25.2788 37.2437 25.2788 37.7325 25.7675C38.2212 26.255 38.2212 27.0462 37.7325 27.535L35.965 29.3038C35.7212 29.5475 35.4012 29.67 35.0812 29.67Z" fill="url(#paint5_linear_570_69)"/>
<path d="M39.5 47.75C38.8088 47.75 38.25 47.19 38.25 46.5V42.75C38.25 42.06 38.8088 41.5 39.5 41.5C40.1912 41.5 40.75 42.06 40.75 42.75V46.5C40.75 47.19 40.1912 47.75 39.5 47.75Z" fill="url(#paint6_linear_570_69)"/>
<path d="M55.41 41.16C55.09 41.16 54.77 41.0375 54.5262 40.7938L51.875 38.1412C51.3862 37.6525 51.3862 36.8612 51.875 36.3737C52.3638 35.885 53.1537 35.885 53.6425 36.3737L56.2938 39.0262C56.7825 39.515 56.7825 40.3063 56.2938 40.7938C56.0488 41.0375 55.7287 41.16 55.41 41.16Z" fill="url(#paint7_linear_570_69)"/>
<path d="M52.7575 11.9925C52.4375 11.9925 52.1175 11.87 51.8737 11.6263C51.385 11.1388 51.385 10.3475 51.8737 9.85875L54.525 7.20625C55.0137 6.7175 55.8037 6.7175 56.2925 7.20625C56.7812 7.69375 56.7812 8.485 56.2925 8.97375L53.6412 11.6263C53.3975 11.87 53.0775 11.9925 52.7575 11.9925Z" fill="url(#paint8_linear_570_69)"/>
<path d="M39.5 6.5C38.8088 6.5 38.25 5.94 38.25 5.25V1.5C38.25 0.81 38.8088 0.25 39.5 0.25C40.1912 0.25 40.75 0.81 40.75 1.5V5.25C40.75 5.94 40.1912 6.5 39.5 6.5Z" fill="url(#paint9_linear_570_69)"/>
<path d="M62 25.25H58.25C57.5588 25.25 57 24.69 57 24C57 23.31 57.5588 22.75 58.25 22.75H62C62.6912 22.75 63.25 23.31 63.25 24C63.25 24.69 62.6912 25.25 62 25.25Z" fill="url(#paint10_linear_570_69)"/>
<path d="M30.4862 10.25H17C16.3088 10.25 15.75 9.69 15.75 9C15.75 8.31 16.3088 7.75 17 7.75H30.4862C31.1775 7.75 31.7362 8.31 31.7362 9C31.7362 9.69 31.1775 10.25 30.4862 10.25Z" fill="url(#paint11_linear_570_69)"/>
<path d="M30.4862 40.25H17C16.3088 40.25 15.75 39.69 15.75 39C15.75 38.31 16.3088 37.75 17 37.75H30.4862C31.1775 37.75 31.7362 38.31 31.7362 39C31.7362 39.69 31.1775 40.25 30.4862 40.25Z" fill="url(#paint12_linear_570_69)"/>
<path d="M39.4225 47.7262C35.7588 47.7262 32.0575 46.8825 28.62 45.1112C28.0063 44.795 27.765 44.0412 28.0813 43.4275C28.3975 42.8137 29.1525 42.5725 29.765 42.8887C39.57 47.9412 51.7838 44.5562 57.5713 35.1825C63.375 25.7812 60.9463 13.3325 52.0425 6.84125C45.5938 2.14125 36.8488 1.46125 29.765 5.11C29.1525 5.42625 28.3975 5.18625 28.0813 4.57125C27.765 3.9575 28.005 3.20375 28.62 2.8875C36.5363 -1.1925 46.3063 -0.43375 53.515 4.82C63.4675 12.075 66.1838 25.9888 59.6975 36.495C55.2588 43.6875 47.435 47.7262 39.4225 47.7262Z" fill="url(#paint13_linear_570_69)"/>
<defs>
<linearGradient id="paint0_linear_570_69" x1="1" y1="-7.13317e-07" x2="63" y2="48" gradientUnits="userSpaceOnUse">
<stop offset="0.4081" stop-color="#F647BB"/>
<stop offset="1" stop-color="#41B9FF"/>
</linearGradient>
<linearGradient id="paint1_linear_570_69" x1="1" y1="-7.13317e-07" x2="63" y2="48" gradientUnits="userSpaceOnUse">
<stop offset="0.4081" stop-color="#F647BB"/>
<stop offset="1" stop-color="#41B9FF"/>
</linearGradient>
<linearGradient id="paint2_linear_570_69" x1="1" y1="-7.13317e-07" x2="63" y2="48" gradientUnits="userSpaceOnUse">
<stop offset="0.4081" stop-color="#F647BB"/>
<stop offset="1" stop-color="#41B9FF"/>
</linearGradient>
<linearGradient id="paint3_linear_570_69" x1="1" y1="-7.13317e-07" x2="63" y2="48" gradientUnits="userSpaceOnUse">
<stop offset="0.4081" stop-color="#F647BB"/>
<stop offset="1" stop-color="#41B9FF"/>
</linearGradient>
<linearGradient id="paint4_linear_570_69" x1="1" y1="-7.13317e-07" x2="63" y2="48" gradientUnits="userSpaceOnUse">
<stop offset="0.4081" stop-color="#F647BB"/>
<stop offset="1" stop-color="#41B9FF"/>
</linearGradient>
<linearGradient id="paint5_linear_570_69" x1="1" y1="-7.13317e-07" x2="63" y2="48" gradientUnits="userSpaceOnUse">
<stop offset="0.4081" stop-color="#F647BB"/>
<stop offset="1" stop-color="#41B9FF"/>
</linearGradient>
<linearGradient id="paint6_linear_570_69" x1="1" y1="-7.13317e-07" x2="63" y2="48" gradientUnits="userSpaceOnUse">
<stop offset="0.4081" stop-color="#F647BB"/>
<stop offset="1" stop-color="#41B9FF"/>
</linearGradient>
<linearGradient id="paint7_linear_570_69" x1="1" y1="-7.13317e-07" x2="63" y2="48" gradientUnits="userSpaceOnUse">
<stop offset="0.4081" stop-color="#F647BB"/>
<stop offset="1" stop-color="#41B9FF"/>
</linearGradient>
<linearGradient id="paint8_linear_570_69" x1="1" y1="-7.13317e-07" x2="63" y2="48" gradientUnits="userSpaceOnUse">
<stop offset="0.4081" stop-color="#F647BB"/>
<stop offset="1" stop-color="#41B9FF"/>
</linearGradient>
<linearGradient id="paint9_linear_570_69" x1="1" y1="-7.13317e-07" x2="63" y2="48" gradientUnits="userSpaceOnUse">
<stop offset="0.4081" stop-color="#F647BB"/>
<stop offset="1" stop-color="#41B9FF"/>
</linearGradient>
<linearGradient id="paint10_linear_570_69" x1="1" y1="-7.13317e-07" x2="63" y2="48" gradientUnits="userSpaceOnUse">
<stop offset="0.4081" stop-color="#F647BB"/>
<stop offset="1" stop-color="#41B9FF"/>
</linearGradient>
<linearGradient id="paint11_linear_570_69" x1="1" y1="-7.13317e-07" x2="63" y2="48" gradientUnits="userSpaceOnUse">
<stop offset="0.4081" stop-color="#F647BB"/>
<stop offset="1" stop-color="#41B9FF"/>
</linearGradient>
<linearGradient id="paint12_linear_570_69" x1="1" y1="-7.13317e-07" x2="63" y2="48" gradientUnits="userSpaceOnUse">
<stop offset="0.4081" stop-color="#F647BB"/>
<stop offset="1" stop-color="#41B9FF"/>
</linearGradient>
<linearGradient id="paint13_linear_570_69" x1="1" y1="-7.13317e-07" x2="63" y2="48" gradientUnits="userSpaceOnUse">
<stop offset="0.4081" stop-color="#F647BB"/>
<stop offset="1" stop-color="#41B9FF"/>
</linearGradient>
</defs>
</svg>
