<svg width="64" height="42" viewBox="0 0 64 42" fill="none" xmlns="http://www.w3.org/2000/svg">
<path d="M9.73249 34.0075C9.67374 34.0075 9.61374 34.0038 9.55249 33.995C6.69624 33.5825 3.95624 32.6863 1.41124 31.33C0.802492 31.005 0.571243 30.2475 0.896243 29.6375C1.22249 29.03 1.97624 28.7988 2.58874 29.1225C4.87624 30.3438 7.33999 31.1488 9.90874 31.5188C10.5925 31.6175 11.0662 32.2513 10.9687 32.935C10.8787 33.5588 10.3437 34.0075 9.73249 34.0075Z" fill="url(#paint0_linear_570_83)"/>
<path d="M54.2675 34.0075C53.6562 34.0075 53.1212 33.5588 53.0312 32.9363C52.9337 32.2525 53.4075 31.6188 54.0912 31.52C56.6612 31.15 59.1237 30.345 61.4112 29.1238C62.025 28.8 62.7775 29.0313 63.1037 29.6388C63.4287 30.2475 63.1975 31.0063 62.5887 31.3313C60.0437 32.6875 57.3037 33.5838 54.4475 33.9963C54.3862 34.0038 54.3262 34.0075 54.2675 34.0075Z" fill="url(#paint1_linear_570_83)"/>
<path d="M41.1925 22.7863C40.9575 22.7863 40.7212 22.72 40.5112 22.5838C39.9325 22.2063 39.7687 21.4325 40.1462 20.8538C41.9175 18.1375 44.91 16.515 48.1525 16.515C48.8437 16.515 49.4025 17.0738 49.4025 17.765C49.4025 18.4563 48.8437 19.015 48.1525 19.015C45.7575 19.015 43.5475 20.2125 42.2412 22.2188C42.0025 22.5863 41.6025 22.7863 41.1925 22.7863Z" fill="url(#paint2_linear_570_83)"/>
<path d="M50.9237 19.015C46.4925 19.015 42.75 15.2725 42.75 10.8425C42.75 6.41252 46.4925 2.67002 50.9237 2.67002C55.3537 2.67002 59.0962 6.41252 59.0962 10.8425C59.0962 15.2725 55.3537 19.015 50.9237 19.015ZM50.9237 5.17002C47.8487 5.17002 45.25 7.76752 45.25 10.8425C45.25 13.9175 47.8487 16.515 50.9237 16.515C53.9987 16.515 56.5962 13.9175 56.5962 10.8425C56.5962 7.76752 53.9987 5.17002 50.9237 5.17002Z" fill="url(#paint3_linear_570_83)"/>
<path d="M62 27.3238C61.3087 27.3238 60.75 26.765 60.75 26.0738C60.75 22.1825 57.5837 19.0163 53.6925 19.0163C53.0012 19.0163 52.4425 18.4575 52.4425 17.7663C52.4425 17.075 53.0012 16.5163 53.6925 16.5163C58.9625 16.5163 63.25 20.805 63.25 26.0738C63.25 26.7638 62.6912 27.3238 62 27.3238Z" fill="url(#paint4_linear_570_83)"/>
<path d="M53.6925 19.015H48.1537C47.4625 19.015 46.9037 18.4563 46.9037 17.765C46.9037 17.0738 47.4625 16.515 48.1537 16.515H53.6925C54.3837 16.515 54.9425 17.0738 54.9425 17.765C54.9425 18.4563 54.3825 19.015 53.6925 19.015Z" fill="url(#paint5_linear_570_83)"/>
<path d="M62 31.4775C61.3087 31.4775 60.75 30.9188 60.75 30.2275L60.75 26.0738C60.75 25.3825 61.3087 24.8238 62 24.8238C62.6912 24.8238 63.25 25.3825 63.25 26.0738L63.25 30.2275C63.25 30.9188 62.6912 31.4775 62 31.4775Z" fill="url(#paint6_linear_570_83)"/>
<path d="M17.2312 32.4C16.54 32.4 15.9812 31.8413 15.9812 31.15C15.9812 24.3525 21.5112 18.8238 28.3075 18.8238C28.9987 18.8238 29.5575 19.3825 29.5575 20.0738C29.5575 20.765 28.9987 21.3238 28.3075 21.3238C22.8887 21.3238 18.4812 25.7313 18.4812 31.15C18.4812 31.8413 17.9212 32.4 17.2312 32.4Z" fill="url(#paint7_linear_570_83)"/>
<path d="M35.6925 21.3238H28.3075C27.6162 21.3238 27.0575 20.765 27.0575 20.0738C27.0575 19.3825 27.6162 18.8238 28.3075 18.8238H35.6925C36.3837 18.8238 36.9425 19.3825 36.9425 20.0738C36.9425 20.765 36.3837 21.3238 35.6925 21.3238Z" fill="url(#paint8_linear_570_83)"/>
<path d="M22.8075 22.7863C22.3987 22.7863 21.9987 22.5863 21.7587 22.2188C20.4512 20.2138 18.2425 19.015 15.8475 19.015C15.1562 19.015 14.5975 18.4563 14.5975 17.765C14.5975 17.0738 15.1562 16.515 15.8475 16.515C19.0912 16.515 22.0825 18.1375 23.8537 20.8538C24.2312 21.4325 24.0675 22.2063 23.4887 22.5838C23.2775 22.72 23.0412 22.7863 22.8075 22.7863Z" fill="url(#paint9_linear_570_83)"/>
<path d="M17.2312 37.9388C16.54 37.9388 15.9812 37.38 15.9812 36.6888V31.15C15.9812 30.4588 16.54 29.9 17.2312 29.9C17.9225 29.9 18.4812 30.4588 18.4812 31.15V36.6888C18.4812 37.38 17.9212 37.9388 17.2312 37.9388Z" fill="url(#paint10_linear_570_83)"/>
<path d="M32 21.3238C26.3187 21.3238 21.5187 16.5238 21.5187 10.8425C21.5187 5.16127 26.3187 0.361267 32 0.361267C37.6812 0.361267 42.4812 5.16127 42.4812 10.8425C42.4812 16.5238 37.6812 21.3238 32 21.3238ZM32 2.86127C27.6737 2.86127 24.0187 6.51627 24.0187 10.8425C24.0187 15.1688 27.6737 18.8238 32 18.8238C36.3262 18.8238 39.9812 15.1688 39.9812 10.8425C39.9812 6.51627 36.3262 2.86127 32 2.86127Z" fill="url(#paint11_linear_570_83)"/>
<path d="M46.7687 32.4C46.0775 32.4 45.5187 31.8413 45.5187 31.15C45.5187 25.7313 41.1112 21.3238 35.6925 21.3238C35.0012 21.3238 34.4425 20.765 34.4425 20.0738C34.4425 19.3825 35.0012 18.8238 35.6925 18.8238C42.49 18.8238 48.0187 24.3538 48.0187 31.15C48.0187 31.8413 47.46 32.4 46.7687 32.4Z" fill="url(#paint12_linear_570_83)"/>
<path d="M46.7687 37.9388C46.0775 37.9388 45.5187 37.38 45.5187 36.6888L45.5187 31.15C45.5187 30.4588 46.0775 29.9 46.7687 29.9C47.46 29.9 48.0187 30.4588 48.0187 31.15L48.0187 36.6888C48.0187 37.38 47.46 37.9388 46.7687 37.9388Z" fill="url(#paint13_linear_570_83)"/>
<path d="M32 41.6388C26.725 41.6388 21.4512 40.3563 16.6425 37.7925C16.0337 37.4663 15.8025 36.71 16.1275 36.1C16.4537 35.4925 17.2062 35.2613 17.82 35.585C26.7 40.3213 37.3025 40.3213 46.1812 35.585C46.7937 35.2613 47.5487 35.4925 47.8737 36.1C48.1987 36.7088 47.9675 37.4663 47.3587 37.7925C42.5487 40.355 37.275 41.6388 32 41.6388Z" fill="url(#paint14_linear_570_83)"/>
<path d="M13.0762 19.015C8.64624 19.015 4.90374 15.2725 4.90374 10.8425C4.90374 6.41252 8.64624 2.67002 13.0762 2.67002C17.5062 2.67002 21.2487 6.41252 21.2487 10.8425C21.2487 15.2725 17.5062 19.015 13.0762 19.015ZM13.0762 5.17002C10.0012 5.17002 7.40374 7.76752 7.40374 10.8425C7.40374 13.9175 10.0012 16.515 13.0762 16.515C16.1512 16.515 18.7487 13.9175 18.7487 10.8425C18.7487 7.76752 16.1512 5.17002 13.0762 5.17002Z" fill="url(#paint15_linear_570_83)"/>
<path d="M1.99999 27.3238C1.30874 27.3238 0.749993 26.765 0.749993 26.0738C0.749993 20.8038 5.03874 16.5163 10.3075 16.5163C10.9987 16.5163 11.5575 17.075 11.5575 17.7663C11.5575 18.4575 10.9987 19.0163 10.3075 19.0163C6.41624 19.015 3.24999 22.1813 3.24999 26.0738C3.24999 26.7638 2.69124 27.3238 1.99999 27.3238Z" fill="url(#paint16_linear_570_83)"/>
<path d="M15.8462 19.015H10.3075C9.61624 19.015 9.05749 18.4563 9.05749 17.765C9.05749 17.0738 9.61624 16.515 10.3075 16.515H15.8462C16.5375 16.515 17.0962 17.0738 17.0962 17.765C17.0962 18.4563 16.5375 19.015 15.8462 19.015Z" fill="url(#paint17_linear_570_83)"/>
<path d="M1.99999 31.4775C1.30874 31.4775 0.749993 30.9188 0.749993 30.2275V26.0738C0.749993 25.3825 1.30874 24.8238 1.99999 24.8238C2.69124 24.8238 3.24999 25.3825 3.24999 26.0738V30.2275C3.24999 30.9188 2.69124 31.4775 1.99999 31.4775Z" fill="url(#paint18_linear_570_83)"/>
<defs>
<linearGradient id="paint0_linear_570_83" x1="0.999032" y1="0.144016" x2="56.2821" y2="49.3974" gradientUnits="userSpaceOnUse">
<stop offset="0.4081" stop-color="#F647BB"/>
<stop offset="1" stop-color="#41B9FF"/>
</linearGradient>
<linearGradient id="paint1_linear_570_83" x1="0.999032" y1="0.144016" x2="56.2821" y2="49.3974" gradientUnits="userSpaceOnUse">
<stop offset="0.4081" stop-color="#F647BB"/>
<stop offset="1" stop-color="#41B9FF"/>
</linearGradient>
<linearGradient id="paint2_linear_570_83" x1="0.999032" y1="0.144016" x2="56.2821" y2="49.3974" gradientUnits="userSpaceOnUse">
<stop offset="0.4081" stop-color="#F647BB"/>
<stop offset="1" stop-color="#41B9FF"/>
</linearGradient>
<linearGradient id="paint3_linear_570_83" x1="0.999032" y1="0.144016" x2="56.2821" y2="49.3974" gradientUnits="userSpaceOnUse">
<stop offset="0.4081" stop-color="#F647BB"/>
<stop offset="1" stop-color="#41B9FF"/>
</linearGradient>
<linearGradient id="paint4_linear_570_83" x1="0.999032" y1="0.144016" x2="56.2821" y2="49.3974" gradientUnits="userSpaceOnUse">
<stop offset="0.4081" stop-color="#F647BB"/>
<stop offset="1" stop-color="#41B9FF"/>
</linearGradient>
<linearGradient id="paint5_linear_570_83" x1="0.999032" y1="0.144016" x2="56.2821" y2="49.3974" gradientUnits="userSpaceOnUse">
<stop offset="0.4081" stop-color="#F647BB"/>
<stop offset="1" stop-color="#41B9FF"/>
</linearGradient>
<linearGradient id="paint6_linear_570_83" x1="0.999032" y1="0.144016" x2="56.2821" y2="49.3974" gradientUnits="userSpaceOnUse">
<stop offset="0.4081" stop-color="#F647BB"/>
<stop offset="1" stop-color="#41B9FF"/>
</linearGradient>
<linearGradient id="paint7_linear_570_83" x1="0.999032" y1="0.144016" x2="56.2821" y2="49.3974" gradientUnits="userSpaceOnUse">
<stop offset="0.4081" stop-color="#F647BB"/>
<stop offset="1" stop-color="#41B9FF"/>
</linearGradient>
<linearGradient id="paint8_linear_570_83" x1="0.999032" y1="0.144016" x2="56.2821" y2="49.3974" gradientUnits="userSpaceOnUse">
<stop offset="0.4081" stop-color="#F647BB"/>
<stop offset="1" stop-color="#41B9FF"/>
</linearGradient>
<linearGradient id="paint9_linear_570_83" x1="0.999032" y1="0.144016" x2="56.2821" y2="49.3974" gradientUnits="userSpaceOnUse">
<stop offset="0.4081" stop-color="#F647BB"/>
<stop offset="1" stop-color="#41B9FF"/>
</linearGradient>
<linearGradient id="paint10_linear_570_83" x1="0.999032" y1="0.144016" x2="56.2821" y2="49.3974" gradientUnits="userSpaceOnUse">
<stop offset="0.4081" stop-color="#F647BB"/>
<stop offset="1" stop-color="#41B9FF"/>
</linearGradient>
<linearGradient id="paint11_linear_570_83" x1="0.999032" y1="0.144016" x2="56.2821" y2="49.3974" gradientUnits="userSpaceOnUse">
<stop offset="0.4081" stop-color="#F647BB"/>
<stop offset="1" stop-color="#41B9FF"/>
</linearGradient>
<linearGradient id="paint12_linear_570_83" x1="0.999032" y1="0.144016" x2="56.2821" y2="49.3974" gradientUnits="userSpaceOnUse">
<stop offset="0.4081" stop-color="#F647BB"/>
<stop offset="1" stop-color="#41B9FF"/>
</linearGradient>
<linearGradient id="paint13_linear_570_83" x1="0.999032" y1="0.144016" x2="56.2821" y2="49.3974" gradientUnits="userSpaceOnUse">
<stop offset="0.4081" stop-color="#F647BB"/>
<stop offset="1" stop-color="#41B9FF"/>
</linearGradient>
<linearGradient id="paint14_linear_570_83" x1="0.999032" y1="0.144016" x2="56.2821" y2="49.3974" gradientUnits="userSpaceOnUse">
<stop offset="0.4081" stop-color="#F647BB"/>
<stop offset="1" stop-color="#41B9FF"/>
</linearGradient>
<linearGradient id="paint15_linear_570_83" x1="0.999032" y1="0.144016" x2="56.2821" y2="49.3974" gradientUnits="userSpaceOnUse">
<stop offset="0.4081" stop-color="#F647BB"/>
<stop offset="1" stop-color="#41B9FF"/>
</linearGradient>
<linearGradient id="paint16_linear_570_83" x1="0.999032" y1="0.144016" x2="56.2821" y2="49.3974" gradientUnits="userSpaceOnUse">
<stop offset="0.4081" stop-color="#F647BB"/>
<stop offset="1" stop-color="#41B9FF"/>
</linearGradient>
<linearGradient id="paint17_linear_570_83" x1="0.999032" y1="0.144016" x2="56.2821" y2="49.3974" gradientUnits="userSpaceOnUse">
<stop offset="0.4081" stop-color="#F647BB"/>
<stop offset="1" stop-color="#41B9FF"/>
</linearGradient>
<linearGradient id="paint18_linear_570_83" x1="0.999032" y1="0.144016" x2="56.2821" y2="49.3974" gradientUnits="userSpaceOnUse">
<stop offset="0.4081" stop-color="#F647BB"/>
<stop offset="1" stop-color="#41B9FF"/>
</linearGradient>
</defs>
</svg>
