<?xml version="1.0" standalone="no"?>
<!DOCTYPE svg PUBLIC "-//W3C//DTD SVG 20010904//EN"
 "http://www.w3.org/TR/2001/REC-SVG-20010904/DTD/svg10.dtd">
<svg version="1.0" xmlns="http://www.w3.org/2000/svg"
 width="700.000000pt" height="700.000000pt" viewBox="0 0 700.000000 700.000000"
 preserveAspectRatio="xMidYMid meet">
<metadata>
Created by potrace 1.14, written by Peter Selinger 2001-2017
</metadata>
<g transform="translate(0.000000,700.000000) scale(0.100000,-0.100000)"
fill="#000000" stroke="none">
<path d="M3275 6784 c-185 -18 -258 -28 -375 -50 -532 -100 -1026 -327 -1455
-670 -138 -110 -375 -346 -486 -484 -142 -177 -281 -396 -384 -604 -224 -455
-327 -863 -342 -1356 -12 -406 40 -761 167 -1140 383 -1148 1380 -1995 2575
-2189 375 -61 829 -52 1183 24 905 191 1674 736 2143 1515 329 547 484 1142
466 1784 -14 499 -120 920 -344 1367 -309 620 -802 1121 -1412 1437 -358 186
-693 292 -1101 347 -109 15 -544 28 -635 19z m675 -253 c860 -134 1608 -609
2084 -1326 254 -381 406 -780 481 -1265 22 -140 31 -537 16 -695 -26 -270
-100 -587 -196 -831 -92 -233 -258 -532 -392 -707 l-45 -58 -77 6 c-778 66
-937 90 -1075 163 -212 111 -296 316 -296 724 l0 137 35 58 c40 65 93 197 130
323 29 98 95 387 95 418 0 20 6 24 62 36 65 14 134 112 213 300 83 199 131
409 120 534 -13 163 -42 246 -93 273 -14 8 -51 14 -84 14 l-58 0 0 180 c0 213
-15 441 -35 559 -64 365 -270 653 -580 809 -221 110 -531 167 -835 153 -393
-18 -675 -114 -894 -305 -103 -89 -176 -185 -241 -316 -106 -213 -134 -366
-142 -782 l-6 -293 -63 0 c-52 0 -67 -4 -92 -25 -38 -32 -58 -82 -71 -179 -16
-112 -14 -175 10 -289 36 -179 128 -420 203 -529 20 -31 28 -61 41 -173 10
-78 15 -184 13 -247 -3 -97 -5 -112 -24 -127 -12 -9 -27 -27 -33 -40 -17 -30
9 -71 44 -71 33 0 32 -5 -10 -51 -19 -22 -35 -44 -35 -49 0 -13 41 -55 61 -63
10 -4 4 -15 -24 -42 -20 -20 -37 -42 -37 -48 0 -22 30 -56 52 -59 21 -3 19 -7
-22 -46 -44 -42 -44 -43 -30 -69 9 -15 26 -30 40 -33 24 -6 23 -7 -18 -40 -23
-18 -42 -42 -42 -52 0 -31 19 -58 40 -58 29 0 25 -12 -15 -47 -56 -50 -42 -95
35 -108 28 -5 40 -12 40 -23 0 -29 -58 -234 -91 -324 l-33 -87 -50 -11 c-112
-24 -721 -95 -874 -102 l-52 -2 -65 88 c-300 407 -497 911 -561 1437 -20 162
-23 519 -5 664 71 582 264 1071 604 1525 119 159 370 416 527 540 406 321 869
529 1380 619 191 34 273 40 560 36 218 -2 303 -7 410 -24z m-305 -816 c220
-56 390 -228 452 -455 24 -88 24 -271 -1 -360 -9 -36 -67 -167 -127 -292 -101
-209 -112 -235 -124 -320 -10 -69 -24 -113 -52 -170 l-38 -77 -255 0 -256 -1
-16 33 c-8 17 -25 51 -37 74 -11 23 -27 85 -35 138 -14 88 -23 113 -125 323
-60 125 -118 256 -127 292 -24 88 -25 271 -1 360 60 225 229 397 447 454 73
19 221 20 295 1z m93 -1777 c17 -17 15 -48 -5 -70 -15 -16 -36 -18 -231 -18
-186 0 -218 2 -234 17 -21 18 -24 53 -6 71 17 17 459 17 476 0z m-16 -175 c22
-20 23 -46 2 -67 -13 -14 -48 -16 -224 -16 -176 0 -211 2 -224 16 -21 20 -20
43 1 66 15 16 35 18 221 18 177 0 208 -2 224 -17z m-82 -222 c-29 -33 -58 -62
-67 -65 -8 -3 -45 -6 -83 -6 l-68 0 -57 65 -57 65 192 0 191 0 -51 -59z
m-1353 -43 c6 -7 18 -56 28 -108 54 -289 148 -570 226 -682 16 -22 19 -45 19
-160 0 -434 -99 -651 -341 -752 l-35 -15 37 112 c53 160 93 351 79 377 -6 11
-20 20 -30 20 -28 0 -25 9 16 51 30 31 35 42 30 64 -4 15 -17 30 -33 36 l-26
10 36 37 c21 21 37 46 37 57 0 23 -28 55 -47 55 -10 0 -5 12 14 38 17 20 33
43 37 50 11 18 -21 62 -44 62 -28 0 -25 9 15 54 19 22 35 45 35 51 0 21 -31
55 -51 55 -25 0 -24 4 13 56 27 38 30 47 20 69 -6 13 -23 27 -37 31 -15 4 -24
12 -21 19 19 50 15 194 -10 379 -6 37 -4 46 8 46 9 0 20 -6 25 -12z"/>
</g>
</svg>
